<svg xmlns="http://www.w3.org/2000/svg" xmlns:xlink="http://www.w3.org/1999/xlink" viewBox="0 0 500 387"><defs><path id="a" d="M.042.026h4.761v9.613H.043z"/><path id="c" d="M.045.032H11.6v7.595H.045z"/><path id="e" d="M0 .08h13.655v12.763H0z"/><path id="g" d="M.048.012h7.157V23.52H.048z"/></defs><g fill="none" fill-rule="evenodd"><path d="M0 0h500v316H0z"/><g transform="translate(62 18)"><ellipse cx="192.5" cy="258.5" fill="#EAF5FE" fill-rule="nonzero" rx="143.5" ry="5.5"/><path fill="#0075FF" fill-rule="nonzero" d="M20.313 205.993c.32 2.637.882 5.237 1.68 7.77 4.32 13.753 17.305 27.771 27.857 33.112 10.552 5.34 25.298 6.894 38.003 6.894 6.474-.063 14.736 4.481 21.013 2.895a91.91 91.91 0 0 0 2.52-.632 161.19 161.19 0 0 0 6.488-1.868l2.68-.842 1.362-.454a249.954 249.954 0 0 0 5.571-1.953l2.874-1.06c9.294-3.477 18.244-8.325 27.378-12.29 8.403-3.652 17.016-6.556 26.159-6.927 23.033-.934 43.562 14.393 66.284 18.324 27.286 4.714 56.302-8.627 72.209-31.345a65.904 65.904 0 0 0 2.26-3.434c.219-.345.43-.698.64-1.044a68.36 68.36 0 0 0 1.613-2.82c.235-.428.462-.84.689-1.304.227-.463.487-.95.722-1.43l.06-.119c.243-.48.47-.96.697-1.447a82.87 82.87 0 0 0 5.041-14.09 90.741 90.741 0 0 0-2.604-53.793 71.372 71.372 0 0 0-1.84-4.57c-3.244-7.458-7.673-14.436-13.782-19.747-12.336-10.74-29.57-13.315-44.394-20.2a100.453 100.453 0 0 1-20.017-12.626c-21.596-17.145-38.654-41.243-62.981-54.651a84.66 84.66 0 0 0-33.73-10.016 95.67 95.67 0 0 0-56.806 13.13c-11.084 6.59-21.47 14.292-30.454 34.88-4.966 11.38-9.495 26.69-13.495 47.977a72.299 72.299 0 0 1-1.79 7.306c-5.32 17.76-17.033 34.635-24.79 52.05-3.94 8.855-6.848 17.852-7.369 27.17a39.472 39.472 0 0 0 .252 7.154z" opacity=".18"/><g fill-rule="nonzero"><path fill="#F9C818" d="M67.79 175.611s27.402-5.442 37.314-27.628c9.912-22.185-8.014-20.507-19.597-9.277-11.582 11.23-16.976 23.798-17.717 36.905"/><path fill="#0A4343" d="M61.547 204.153c-.003-.035-.224-3.513.616-9.126.774-5.173 2.634-13.28 7.1-22.531 4.46-9.242 9.364-16.316 12.692-20.624 3.61-4.672 6.204-7.194 6.23-7.219l.397.406c-.026.025-2.597 2.526-6.184 7.17-3.31 4.284-8.186 11.32-12.622 20.512-4.43 9.178-6.277 17.22-7.046 22.349-.834 5.559-.617 8.99-.615 9.025l-.568.038z"/><path fill="#237978" d="M61.342 154.179s24.102-11.749 26.026-35.672c1.924-23.923-14.476-18.068-21.663-4.413-7.187 13.655-8.067 27.155-4.363 40.085"/><path fill="#F9C818" d="M56.96 161.097S31 140.187 34.539 113.04c3.538-27.148 21.724-15.291 26.986 2.197 5.263 17.488 3.02 32.74-4.565 45.86"/><path fill="#237978" d="M54.52 163.179s-32.73-6.62-42.194-32.325c-9.463-25.705 12.171-23.544 24.956-10.45 12.786 13.094 17.876 27.653 17.238 42.775"/><path fill="#0A4343" d="M58.486 207.63c-.013-.147-1.303-14.826.089-33.262.817-10.831 2.387-20.823 4.664-29.697 2.85-11.104 6.823-20.483 11.81-27.876l.472.315c-4.95 7.339-8.896 16.657-11.729 27.696-2.27 8.841-3.833 18.798-4.649 29.595-1.389 18.39-.103 33.032-.09 33.178l-.567.05zm-11.393 18.199-.54-.18c.052-.155 5.233-15.766 7.715-37.776 1.457-12.924 1.712-25.492.759-37.356-1.191-14.824-4.284-28.583-9.193-40.896l.53-.21c4.93 12.369 8.036 26.186 9.231 41.07.956 11.901.7 24.508-.763 37.469-2.49 22.066-7.687 37.723-7.74 37.879"/><path fill="#204EB2" d="M52.933 253.992h9.111c9.043 0 16.373-7.293 16.373-16.289V202.08H36.56v35.623c0 8.996 7.33 16.29 16.373 16.29z"/><path fill="#0A4343" d="M55.496 170.086c-.277-4.578-2.097-9.844-5.41-15.65-2.694-4.727-6.387-9.833-10.975-15.178-7.232-8.426-14.78-15.205-17.69-17.729a20.784 20.784 0 0 1-.215-.188l.383-.42c.028.026.098.087.207.181 2.92 2.532 10.492 9.334 17.748 17.788 4.611 5.372 8.325 10.508 11.038 15.266 3.355 5.883 5.2 11.23 5.482 15.896l-.568.034z"/></g><g fill-rule="nonzero"><path fill="#0A4343" d="M302.286 136.18c-.006-.1-.563-10.13-2.803-22.906-1.314-7.498-2.943-14.46-4.84-20.693-2.367-7.78-5.162-14.436-8.305-19.783l.649-.384c3.174 5.4 5.993 12.113 8.379 19.952 1.906 6.264 3.541 13.257 4.861 20.787 2.247 12.818 2.806 22.887 2.811 22.987l-.752.04z"/><path fill="#F9C818" d="M294.224 67.69c-.111 4.638-3.954 8.308-8.583 8.196-4.628-.111-8.29-3.962-8.179-8.6.111-4.639 3.954-8.309 8.583-8.197 4.628.111 8.29 3.962 8.18 8.6"/><path fill="#237978" d="M295.967 77.94s-13.795-27.3-.637-48.786c13.157-21.486 23.87-4.707 21.686 11.96-2.184 16.668-9.79 28.644-21.05 36.825"/><path fill="#0A4343" d="m291.967 83.062-.502-.563c3.128-2.802 5.88-7.104 8.18-12.785 1.875-4.63 3.458-10.193 4.706-16.536 1.97-10.002 2.573-19.292 2.742-22.822.006-.14.01-.229.013-.265l.752.051c-.003.035-.007.12-.013.25-.169 3.547-.776 12.88-2.754 22.932-1.258 6.39-2.855 12-4.747 16.674-2.344 5.789-5.162 10.184-8.377 13.064m22.496 9.658s-14.566 21.932-19.834 49.292c-5.267 27.36 1.895 39.438 1.895 39.438l5.922-2.918s-3.523-16.41-.062-35.422c3.461-19.011 17.365-46.702 17.365-46.702l-5.286-3.689z"/><path fill="#FC7750" d="M304.604 61.797s-5.228 6.854 2.153 14.586c7.38 7.732-2.234 18.673 8.355 23.347 0 0 5.643 2.923 10.798-4.203 5.154-7.126 5.768-8.15 12.9-7.004 7.133 1.146 10.662-6.42 10.662-6.42s-8.691-7.881-24.317-12.743c-15.627-4.862-20.55-7.563-20.55-7.563"/><path fill="#FEA78D" d="M304.604 61.797s11.069 10.556 25.983 14.88c14.915 4.324 18.885 5.426 18.885 5.426s-6.099-7.516-18.335-12.879c-12.236-5.363-20.412-4.305-26.533-7.427"/><path fill="#0A4343" d="M289.164 110.299s4.458 15.087 14.959 27.98c10.5 12.894 18.768 14.227 18.768 14.227l.933-3.838s-8.857-4.663-16.23-13.53c-7.373-8.868-14.72-25.856-14.72-25.856l-3.71 1.017z"/><path fill="#EC7070" d="M270.489 103.085s1.135 5.027 7.497 4.595c6.363-.43 7.688 8.175 13.88 5.098 0 0 3.498-1.473 2.21-6.569-1.287-5.096-1.52-5.77 1.734-8.608 3.255-2.838 1.144-7.356 1.144-7.356s-6.932.976-15.138 6.294-11.327 6.546-11.327 6.546"/><path fill="#EECCDC" d="M270.489 103.085s9.067-1.044 16.754-6.24c7.687-5.198 9.711-6.6 9.711-6.6s-5.773-.075-12.91 3.494c-7.138 3.568-9.783 7.73-13.555 9.346"/><path fill="#EC7070" d="M289.143 205.967h25.056c16.648 0 30.143-13.524 30.143-30.206v-49.18H259v49.18c0 16.682 13.495 30.206 30.143 30.206z"/></g><g transform="translate(0 175)"><rect width="134" height="79" fill="#0061D5" rx="12"/><rect width="134" height="38" y="41" fill="#00234E" rx="12"/><rect width="31" height="22" x="8" y="28" fill="#F9C818" rx="4"/><g transform="translate(10 63)"><rect width="19.034" height="5" fill="#F9C818" rx="2.5"/><rect width="19.034" height="5" x="31.724" fill="#F9C818" rx="2.5"/><rect width="19.034" height="5" x="64.241" fill="#F9C818" rx="2.5"/><rect width="19.034" height="5" x="95.966" fill="#FDB523" rx="2.5"/></g></g><g fill-rule="nonzero" transform="translate(121)"><rect width="143.458" height="253.444" fill="#0075FF" rx="5.423"/><rect width="131.54" height="213.107" x="5.735" y="5.711" fill="#6BC8FE" rx="2.789"/><ellipse cx="71.729" cy="236.087" fill="#FCEBEC" rx="9.005" ry="9.058"/><g fill="#0075FF" transform="matrix(-1 0 0 1 128.634 12.672)"><path d="m.588 3.232 10.843-1.536-1.036 6.871-9.807-.534z"/><path d="m12.007 1.496-1.056-.157-1.096 7.334.78 1.862H.05v1.066h12.186l-1.282-3.065z"/><path d="M13.126 0C11.86 0 11.057.532 10.9 1.539a.528.528 0 0 0 .46.597.543.543 0 0 0 .614-.425l.003-.015c.07-.446.392-.647 1.15-.647a.535.535 0 0 0 .545-.525.535.535 0 0 0-.545-.524z"/><circle cx="1.26" cy="12.003" r="1"/><circle cx="10.4" cy="12.003" r="1"/></g><rect width="103.225" height="62.915" x="20.161" y="44.799" fill="#FFF" rx="2.944"/><g fill="#0075FF"><path d="M108.585 89.948c.163-2.164-.89-4.128-3.158-5.891-7.458-2.935-13.683-2.122-24.386-4.948-7.136-1.884-12.14-3.808-15.01-5.77l-5.19-8.373c-3.124-3.238-4.685-2.066-4.685 3.516 0 8.372-8.249 6.345-11.319 6.345-3.07 0-3.07-2.023-4.476-2.233-1.639-.246-3.044 1.504-3.81 2.233-.949.903-1.454 5.326-1.515 13.27h22.868c2.46 1.089 5.674 1.706 9.64 1.85 13.305.486 26.985.486 41.04 0z"/><path d="M58.438 89.344v2.785c2.721.99 5.443 1.485 8.165 1.485h40.867l1.131-2.413c-25.42.02-39.416-.042-41.986-.186-2.57-.144-5.296-.7-8.177-1.67zm-23.402-.37v4.454h22.101v-4.455H35.036z"/></g><path fill="#0075FF" d="m105.898 21.308 1.219-.676 2.59 4.11-1.697.941z"/><path fill="#0075FF" d="M104.659 12.895c-2.598 0-4.705 2.098-4.705 4.685 0 2.588 2.107 4.686 4.705 4.686s4.704-2.098 4.704-4.686c0-2.587-2.106-4.685-4.704-4.685zm0 1.339a3.353 3.353 0 0 1 3.36 3.346 3.353 3.353 0 0 1-3.36 3.347 3.353 3.353 0 0 1-3.36-3.347 3.353 3.353 0 0 1 3.36-3.346zm-91.129-.312h13.262v1.785H13.53zm0 3.658h13.262v1.785H13.53zm0 3.838h13.262v1.785H13.53z"/><rect width="51.792" height="17.134" x="71.55" y="188.165" fill="#0075FF" rx="8.567"/><path d="m26.792 127.258-3.898 2.04.745-4.322-3.153-3.061 4.357-.63 1.949-3.933 1.949 3.932 4.357.631-3.153 3.061.744 4.322zm16.308 0-3.897 2.04.744-4.322-3.153-3.061 4.357-.63 1.949-3.933 1.949 3.932 4.357.631-3.153 3.061.744 4.322zm16.308 0-3.897 2.04.744-4.322-3.153-3.061 4.357-.63 1.95-3.933 1.948 3.932 4.357.631-3.153 3.061.745 4.322zm16.308 0-3.897 2.04.744-4.322-3.153-3.061 4.357-.63 1.95-3.933 1.948 3.932 4.357.631-3.153 3.061.745 4.322zm16.308 0-3.897 2.04.744-4.322-3.153-3.061 4.358-.63 1.948-3.933 1.95 3.932 4.357.631-3.154 3.061.745 4.322z" fill="#0075FF"/><g transform="translate(20.161 140.198)"><rect width="103.225" height="38.284" fill="#FFF" rx="7.127"/><rect width="81.72" height="3.837" x="10.484" y="9.727" fill="#0075FF" rx=".62"/><rect width="30.018" height="3.837" x="10.484" y="17.67" fill="#0075FF" rx=".62"/><rect width="35.932" height="3.837" x="10.484" y="25.701" fill="#0075FF" rx=".62"/></g></g><path fill="#ECAFA3" fill-rule="nonzero" d="m105.207 246.91-.874 6.59 5.41 1.09 2.405-6.645zm32.189-17.375 3.764-.024-6.934 10.318-3.17-3.594z"/><path fill="#204EB2" fill-rule="nonzero" d="M126.976 239.34c-.357 0-1.417-1.195-2.96-3.229l-2.121 12.159c-13.64 2.055-19.348-1.896-19.348-1.896l4.01-36.116c-6.14-9.541-11.69-19.168-14.06-22.624-7.2-10.502-5.66-58.087-5.66-58.087 9.999.272 40.388 0 40.388 0s2.353 49.496 2.353 53.872c0 4.377-2.44 23.018-2.44 23.018s12.198 20.422 11.385 22.368c-.813 1.944-9.433 10.535-11.547 10.535z"/><path fill="#000" fill-rule="nonzero" d="M109.462 147.491h.016a.27.27 0 0 1 .25.287l-.018.28c-.007.1-.013.212-.02.334l-.018.325c-.023.42-.045.885-.066 1.392-.227 5.467-.174 11.412.357 16.998.614 6.456 1.807 11.602 3.684 14.946l2.214 3.951 2.528 4.521c1.594 2.854 3.26 5.841 4.937 8.85l3.897 6.999a.268.268 0 0 1-.105.365.27.27 0 0 1-.358-.091l-3.708-6.66c-1.69-3.031-3.371-6.047-4.982-8.93l-2.425-4.338c-.88-1.574-1.706-3.046-2.468-4.405-1.922-3.424-3.13-8.634-3.75-15.157-.533-5.614-.587-11.582-.36-17.071l.014-.3c.021-.494.044-.943.066-1.346l.025-.416.018-.284a.27.27 0 0 1 .272-.25zm3.101 70.632a.27.27 0 0 1 .362.072l.009.013 11.169 17.81a.268.268 0 0 1-.086.37.27.27 0 0 1-.362-.072l-.01-.013-11.168-17.81a.268.268 0 0 1 .086-.37z"/><path fill="#237978" fill-rule="nonzero" d="M110.214 253.346s.713-.142.713.48c0 .62-.713 4.49-.024 7.565.69 3.074 4.693 7.064-5.086 7.195-9.779.13-7.515-3.663-6.366-5.135 1.148-1.471 3.598-4.967 4.155-7.125.558-2.159.242-3.961.866-4.256 0 0 2.822 1.21 5.742 1.276z"/><path fill="#F9C818" fill-rule="nonzero" d="M98.709 267.138c1.718 1.422 4.63 1.973 9.318 1.422 4.688-.551 4.775-2.35 4.047-4.063 0 0-8.212.985-12.623-1.046 0 0-2.46 2.265-.742 3.687z"/><path fill="#237978" fill-rule="nonzero" d="M133.263 238.776s-.562.263.033 1.055c.595.79 1.255 2.67 2.357 6.634 1.101 3.964 1.407 5.671 1.713 10.794.306 5.123-.184 12.258 3.916 10.123 4.1-2.134 5.63-9.086 4.895-13.294-.734-4.208-2.325-8.538-.979-13.843 1.346-5.306 2.325-8.66-.734-9.697-3.06-1.037-5.905-1.942-5.92-.85 0 0 .144 6.605-5.281 9.078z"/><path fill="#F9C818" fill-rule="nonzero" d="M146.244 259.096s-1.158 9.044-6.661 8.804c0 0-2.028.625-2.124-7.024 0 0 .29 3.608 8.785-1.78z"/><g transform="translate(141.765 229.68)"><mask id="b" fill="#fff"><use xlink:href="#a"/></mask><path fill="#F9C818" fill-rule="nonzero" d="M.187.026S-1.05 6.38 3.704 9.639c0 0 1.65-5.286.907-7.039C3.87.847 2.77.765.187.026" mask="url(#b)"/></g><g fill-rule="nonzero"><path fill="#ECAFA3" d="M102.45 71.046s-.332 7.26-4.581 9.822c-3.855 2.325 4.312 15.816 13.098 15.011 4.81-.44 5.936-13.548 5.936-13.548s-3.883-.748-2.448-6.65l-12.006-4.635z"/><path fill="#ECAFA3" d="M109.484 78.427c-5.696-.686-9.806-4.418-10.382-10.61-1.656.263-2.046-4.037-1.585-5.419.462-1.383 1.968-.574 1.968-.574.084-.219.155-.447.213-.687 2.488-10.171 9.457-9.768 9.457-9.768 12.805.665 9.805 13.695 9.073 17.151-.731 3.457-3.238 10.57-8.744 9.907zM71.15 102.89c-10.142 16.013-13.341 25.728-9.598 29.146 3.742 3.418 10.882-.74 21.419-12.474-.543-2.62-1.945-5.478-4.206-8.575-2.26-3.097-4.8-5.795-7.615-8.096z"/><path fill="#F9C818" d="m135.062 114.267-7.402-.858s1.894 25.393 1.182 25.393c-.382 0-9.273 4.804-21.733 4.804-9.573 0-21.314-3.155-21.81-3.181-.061-.004-.12-.045-.177-.121.16-1.752.286-4.848.414-8.268.09-2.4.182-4.957.287-7.32.098-2.197.207-4.226.339-5.802.574-6.874.177-13.147.177-13.147l-2.835 7.666-17.968-6.525s6-8.715 13.153-16.295c7.097-7.521 18.48-9.43 18.657-9.458h.002s-.64 10.376 10.129 11.173c8.952.662 9.416-10.032 9.416-10.032s10.466 2.723 13.468 5.275c3.002 2.552 16.247 19.976 16.247 20.416 0 .44-11.546 6.28-11.546 6.28z"/><path fill="#F9C818" d="M85.823 124.717c-.105 2.362-.197 4.92-.287 7.319-.02-1.626.044-3.963.287-7.32"/><path fill="#204EB2" d="m123.03 117.254-9.412.763a1.03 1.03 0 0 1-1.111-.941l-1.505-18.448a1.028 1.028 0 0 1 .944-1.107l9.413-.763a1.03 1.03 0 0 1 1.111.941l1.505 18.448a1.028 1.028 0 0 1-.944 1.107"/><path fill="#025B9C" d="m123.99 116.743-9.447.765a1.013 1.013 0 0 1-1.092-.925l-1.453-17.81a1.011 1.011 0 0 1 .929-1.089l9.447-.765a1.013 1.013 0 0 1 1.092.925l1.453 17.81a1.011 1.011 0 0 1-.929 1.089"/><path fill="#FFF" d="M122.401 98.95a.971.971 0 0 1-.891 1.045.971.971 0 1 1-.158-1.934.973.973 0 0 1 1.05.889"/><path fill="#ECAFA3" d="M120.538 116.092s-4.721 1.026-4.751-.603c0 0 3.207-1.327 3.934-1.267.726.06 4.085.453 4.085.453l-4.146-2.051-4.116 1.267s-.938.06-1.361-.604c-.424-.663.06-1.055.06-1.055l5.387-1.78s.181-.573-1.18-.633c-1.362-.06-4.358-.271-4.358-.271s-.666-.573-.363-1.599c.302-1.025 1.997-.663 1.997-.663s-.938-.905.484-1.9c0 0 4.358.12 5.962 1.115a6701.74 6701.74 0 0 0 12.582 7.714l8.545-4.473c10.815 13.194 13.684 21.01 8.608 23.45-5.076 2.44-15.533-3.26-31.37-17.1z"/><path fill="#C86A5D" d="m125.278 110.16-4.29-2.422-5.343-.571.038-.356 5.38.575a.17.17 0 0 1 .069.022l4.323 2.441-.177.312zm17.222 8.945-10.255-6.422.19-.303 10.256 6.422zm-64.299-7.345-10.287 6.371-.19-.304 10.288-6.37zm46.729.365c-.027-.018-2.715-1.832-3.416-2.123-.535-.222-1.604.183-1.971.358l-.155-.323c.06-.028 1.473-.694 2.264-.365.734.305 3.368 2.082 3.48 2.157l-.202.296z"/><path fill="#ECAFA3" d="m124.006 105.049 2.65 4.038-2.52-1.58z"/><path fill="#C86A5D" d="m126.56 109.238-2.52-1.579.192-.303 2.519 1.58z"/><path fill="#FFF" d="m91.387 119.083-3.155-.062c-3.321-.065-5.96-2.8-5.896-6.111l.198-10.02 14.344.281-.213 10.854c-.056 2.85-2.42 5.114-5.278 5.058"/><path fill="#ECAFA3" d="M82.22 106.354s-1.295.829-1.711 1.336c-.416.507-.046.599-.971 1.566-.925.968-2.59 3.41.323 7.142 2.913 3.733 3.884 3.41 5.086 2.765 1.202-.645 1.34-1.106 3.606-1.336 2.266-.23 4.439-2.442 4.392-2.995l-.046-.553s2.08-.783 1.942-1.659c-.139-.875-.74-.783-.74-.783s.416-.415.093-1.152c-.324-.737-1.85-.6-3.607-.369-1.756.23-6.287 1.152-6.565.968-.277-.184-.184-.46.879-.6 1.063-.137 5.363-.183 5.363-1.381s-1.295-1.429-3.791-1.383c-2.497.046-2.96-.092-3.56.139l-.601.23-.093-1.935z"/><path fill="#995B5D" d="M94.138 111.832s.132-.096-.857.28c-.36.138-.868.28-1.584.416-2.681.507-6.889 1.428-8.183 1.613-1.295.184-.231.46 2.728-.139s6.48-1.402 6.639-1.455c.27-.09 1.077-.358 1.257-.715m-2.21 2.723s-2.188.765-3.265 1.034c-1.144.284-2.005.671-2.236.303-.232-.37-.509-.461-.509-.461l-.37.414s.063.46-.139.507c-.36.086-1.063.23-1.063.23s.008.259 2.163-.188c.534-.111 1.525-.269 2.154-.448.578-.164 2.664-.7 2.942-.93.277-.23.323-.46.323-.46"/><path fill="#F9C818" d="M85.132 114.325s-.034 1.855.492 1.826c.525-.029.71-.029.803-.167.092-.139-.14-.6-.14-1.106 0-.507 0-.737-.415-.691-.416.046-.694.046-.74.138"/></g><g fill-rule="nonzero"><path fill="#000" d="m113.308 63.49.342.108-.034.107-.089.297c-.092.316-.184.655-.27 1.004-.096.389-.178.765-.243 1.12l-.018.106c-.156.903-.178 1.593-.039 1.965l.008.02c.797 1.965-.285 2.961-2.556 2.264l-.07-.022.11-.34c2.046.652 2.867-.083 2.184-1.767-.188-.464-.16-1.25.028-2.29.066-.362.15-.746.247-1.141.077-.315.16-.622.243-.911l.031-.108.054-.181.044-.144.028-.088z"/><path fill="#C86A5D" d="m104.444 77.177.176-.312.064.034.059.032c.089.046.19.098.303.153l.049.024c.379.184.798.368 1.245.54 1.027.394 2.042.664 2.987.751.428.04.834.041 1.213 0l.076-.008.044.355a6.397 6.397 0 0 1-1.366.01c-.982-.091-2.028-.369-3.084-.775a16.388 16.388 0 0 1-1.272-.551l-.147-.073c-.062-.03-.12-.06-.175-.089l-.102-.053-.07-.038z"/><g fill="#000"><path d="M110.685 73.553c-1.636-.437-2.669-1.513-2.717-1.565a.268.268 0 0 1 .011-.379.27.27 0 0 1 .38.011c.021.022 1.237 1.276 3.04 1.532a.27.27 0 0 1 .23.303.27.27 0 0 1-.305.228 5.396 5.396 0 0 1-.64-.13m.998-2.85c-.363 0-.816-.07-1.38-.25l.109-.341c1.052.335 1.83.308 2.188-.078.306-.328.304-.928-.005-1.689-.21-.517-.158-1.496.154-2.912.228-1.036.518-1.942.521-1.95l.342.109c-.315.978-1.051 3.714-.684 4.619.466 1.15.222 1.759-.065 2.067-.204.22-.561.425-1.18.425m-1.498-7.404a.495.495 0 0 1-.162-.028c-.524-.182-2.037-.666-2.738-.718-.66-.049-1.668.276-2 .406a.491.491 0 1 1-.36-.916c.057-.023 1.412-.547 2.433-.471.974.072 2.908.742 2.99.77a.492.492 0 0 1-.163.957"/><path d="M118.49 64.978a.48.48 0 0 1-.285-.093c-.274-.2-1.122-.743-1.738-.845-.658-.11-2.17.014-2.697.07a.48.48 0 1 1-.104-.955c.083-.008 2.037-.216 2.96-.063.97.162 2.102.984 2.15 1.019a.48.48 0 0 1-.286.867m-9.248.892a.268.268 0 0 1-.182-.071 1.676 1.676 0 0 0-1.089-.372c-.663.024-1.103.348-1.107.35a.27.27 0 0 1-.377-.052.267.267 0 0 1 .05-.374c.024-.018.573-.43 1.415-.46a2.21 2.21 0 0 1 1.472.513.268.268 0 0 1-.182.466m7.55.818a.268.268 0 0 1-.182-.071 1.673 1.673 0 0 0-1.089-.372 2.146 2.146 0 0 0-1.106.35.27.27 0 0 1-.378-.05.268.268 0 0 1 .05-.376c.023-.018.573-.43 1.414-.46a2.211 2.211 0 0 1 1.473.513.268.268 0 0 1-.182.466"/></g></g><path d="M119.782 65.415c0-1.677-.375-3.799.635-4.637 1.009-.838 3.195-2.262 1.933-4.022-1.26-1.76.169-5.196-2.018-5.615-2.186-.419-2.278-1.108-2.867-2.7-.588-1.593-3.088-.334-4.115-1.138-.968-.758-2.125-2.065-4.806-.724-1.444.723-3.908-2.085-5.701 1.88-1.15 2.543-2.368.316-4.033 1.638-1.979 1.57-.053 3.865-1.819 5.039-1.766 1.173-.228 2.518-.863 3.84-1.048 2.182.745 9.847 1.922 10.518 1.177.67 1.786 1.799 1.786 1.799s-.543-1.838-.677-3.514c0 0-.91.226-1.406-1.394-.497-1.62-.673-4.38.401-4.69 1.075-.312 1.275.56 1.275.56s.353 1.333.149 2.351.46 1.629.817.102c.357-1.527 2.145-1.578 1.787-3.664-.357-2.087.358-3.308 1.787-3.919 1.43-.61 1.839-3.715 3.064-3.41 1.226.306 2.604-1.017 4.493-.101 1.89.916 1.737 2.188 3.37 2.494 1.635.305 2.503 1.323 2.503 2.188 0 .865 1.123 1.17 1.43 2.392.306 1.221.037 4.842-.604 7.883 0 0 1.557-1.48 1.557-3.156z" fill="#66231C" fill-rule="nonzero"/><path d="M109.482 74.87c.17-.29.395-.418.675-.383.418.052.866 1.205 1.567 1.844.467.426 1.073.786 1.816 1.08-.925 2.186-2.22 3.281-3.886 3.285-1.942.003-3.639-.625-4.964-3.246-1.078-2.134.767-.417 3.19-1.362.554-.216.998-.66 1.602-1.219z" fill="#000" fill-rule="nonzero"/><g fill-rule="nonzero"><path fill="#DDB0C8" d="M342.799 96C358.374 96 371 108.587 371 124.113v60.774C371 200.413 358.374 213 342.799 213H308.2c-15.574 0-28.2-12.587-28.2-28.113v-60.774C280 108.587 292.626 96 308.201 96H342.8zm.006 10.687h-34.61c-9.584 0-17.371 7.662-17.526 17.173l-.002.289v60.757c0 9.548 7.691 17.306 17.238 17.46l.29.003h34.61c9.584 0 17.371-7.663 17.526-17.174l.002-.289V124.15c0-9.548-7.691-17.306-17.238-17.46l-.29-.002z"/><path fill="#EECCDC" d="M265.55 155h117.9L390 257H259z"/><g fill="#DDB0C8" transform="translate(306 174)"><ellipse cx="17.92" cy="17.574" rx="17.92" ry="17.574"/><path d="M12.007 22.682h11.827l4.928 41.134H7.079z"/></g></g><path fill="#7D4439" fill-rule="nonzero" d="M260.012 167.903s-.303 6.721-4.189 9.094c-3.526 2.152 3.944 14.643 11.98 13.898 4.398-.408 5.429-12.543 5.429-12.543s-3.552-.693-2.24-6.157l-10.98-4.292z"/><path fill="#7D4439" fill-rule="nonzero" d="M266.446 174.737c-5.21-.635-8.969-4.091-9.495-9.823-1.514.243-1.872-3.738-1.45-5.017.422-1.28 1.8-.532 1.8-.532a5.38 5.38 0 0 0 .195-.636c2.276-9.417 8.65-9.043 8.65-9.043 11.711.615 8.967 12.679 8.298 15.879-.67 3.2-2.962 9.786-7.998 9.172zm-36.789 26.481c-4.546 8.107-5.536 14.168-2.972 18.181 3.847 6.02 9.304-1.935 11.547-10.82 1.495-5.924 3.789-10.655 6.88-14.192l-15.455 6.83z"/><path fill="#1BC0D7" fill-rule="nonzero" d="M245.392 179.64c6.805-2.123 8.902-2.242 8.902-2.242l7.184 1.561s3.937 5.22 4.274 9.874c0 0 .112-6.129 2.7-10.328 0 0 11.386-.105 15.679 4.417 6.78 7.142 6.653 19.675 6.653 19.675l-11.188 1.16 4.535-6.37s.286 25.956-.388 32.652c-8.541 9.505-39.242 2.148-39.242 2.148s.666-21.478.779-27.353c.112-5.875-2.041-5.081-5.01 2.201-2.427 5.954-10.144-6.39-10.144-6.39s4.736-17.72 15.266-21.005z"/><path fill="#FCEBEC" fill-rule="nonzero" d="M280.13 211.99s5.525-2 11.142-.82c0 0-.072-1.849-.015-4.292.048-2.006 1.137-5.111-2.793-4.777-4.574.39-6.534.43-8.523 1.338 0 0-.473 6.64.19 8.55"/><path fill="#237978" fill-rule="nonzero" d="m227.586 204.542 2.409-7.647s8.916-1.88 12.449 5.896l-2.648 6.923s-4.95-7.366-12.21-5.172"/><g transform="translate(250.083 176.236)"><mask id="d" fill="#fff"><use xlink:href="#c"/></mask><path fill="#237978" fill-rule="nonzero" d="M4.326.04S-.222 1.594.058 2.017c.28.424 8.354 5.842 8.96 5.602.605-.24 2.875-4.58 2.55-5.017C11.244 2.166 4.715-.122 4.326.04" mask="url(#d)"/></g><path fill="#237978" fill-rule="nonzero" d="M275.744 178.164s3.915 2.805 3.527 3.13c-.389.325-9.665 3.176-10.177 2.77-.512-.404-1.45-5.22-1.016-5.543.435-.324 7.34-.625 7.666-.357"/><path fill="#7D4439" fill-rule="nonzero" d="M232.996 209.19c2.241 3.31.912 3.37 1.888 5.192.976 1.82 1.894 5.621 3.015 5.526 1.12-.095 1.179-.723.742-1.898-.436-1.175-1.715-4.937-1.236-5.116.48-.178 2.027 7.258 3.802 7.138 1.776-.12.286-3.93-.517-5.636-.803-1.705-1.076-2.968-.569-2.858.508.11 2.463 8.432 3.908 8.182 1.444-.25.71-3.174-.09-4.9-.8-1.727-1.996-4.448-1.996-4.448s2.03 2.654 2.95 5.821c.92 3.167 1.486 3.329 2.003 3.023.517-.305-.168-4.034-.168-4.034s1.731-2.858-.447-5.406c-2.178-2.547-3.396-5.232-6.398-6.673-3.003-1.441-4.868-.242-4.868-.242s-4.26 3.017-2.019 6.328z"/><path fill="#237978" fill-rule="nonzero" d="M276.76 193.618h-7.455a.552.552 0 0 1-.55-.555v-.651c0-.306.247-.554.55-.554h7.456c.303 0 .549.248.549.554v.651a.552.552 0 0 1-.55.555"/><g fill-rule="nonzero"><path fill="#204EB2" d="m270.136 221.522-14.999-4.194s-.932-.994 1.814-1.255c2.745-.261 31.43-1.034 31.43-1.034l-18.245 6.483z"/><path fill="#025B9C" d="M312.66 221.477h-42.07c-.778 0-1.41-.638-1.41-1.424l3.819-27.95c0-.786.631-1.424 1.41-1.424h42.07c.779 0 1.41.638 1.41 1.424l-3.818 27.95c0 .786-.632 1.424-1.411 1.424"/></g><g fill-rule="nonzero"><path fill="#7D4439" d="M302.753 221.435s-.24.48-.569.987c-.328.507-.514.212-1.105 1.293-.59 1.081-2.27 3.228-6.38 1.762-4.11-1.466-4.1-2.403-3.871-3.633.228-1.23.594-1.482.157-3.519-.438-2.036.896-4.559 1.396-4.677l.5-.118s.101-2.034.911-2.164c.81-.13.9.42.9.42s.247-.48.988-.41c.74.07 1.05 1.437 1.343 3.031.294 1.594.763 5.799 1.004 5.987.24.189.458.03.279-.935-.179-.965-1.354-4.718-.299-5.06 1.055-.343 1.624.717 2.289 2.902.665 2.184.917 2.547.884 3.136l.2 1.001 1.373-.003z"/><path fill="#995B5D" d="M294.686 211.753s.046-.143-.006.825c-.019.353-.001.835.082 1.497.312 2.477.69 6.4.893 7.579.203 1.179-.34.333-.65-2.412-.308-2.745-.596-6.04-.594-6.192.002-.26.01-1.039.275-1.297m-1.761 5.837c.072 1.076.232 2.859.247 3.048.026.337.097.99.097.99s-.23.067-.444-1.934c-.054-.497-.195-1.404-.215-2.002-.019-.55-.137-2.518-.013-2.825.125-.307.315-.413.315-.413s-.055 2.122.013 3.136z"/></g><path fill="#7D4439" fill-rule="nonzero" d="M263.391 246.295s3.51 1.536 3.932.939c.423-.597-3.213 3.114-3.213 3.114l-2.622-1.493 1.903-2.56z"/><path stroke="#000" stroke-width=".5" d="M263.391 246.295s3.51 1.536 3.932.939c.423-.597-3.213 3.114-3.213 3.114l-2.622-1.493 1.903-2.56z"/><path fill="#F0ECEC" fill-rule="nonzero" d="M291.51 248.172s5.159 3.03 1.057 7.764c-4.102 4.736-18.605 1.494-18.605 1.494l-.38-1.877s14.587-7.125 17.928-7.38"/><path fill="#E0D3CC" fill-rule="nonzero" d="M291.51 248.172s2.03.427 2.664 2.773c.634 2.347-.764 5.079-2.813 5.995 0 0 2.615-5.856-1.98-8.272l2.129-.496z"/><path fill="#E7DADA" fill-rule="nonzero" d="M289.853 257.606s-1.853-3.802-2.698-3.717c-.846.085-10 .565-10.92.389l-3.034 1.232.536 1.953s11.287 2.665 16.116.143"/><path fill="#F9F9F9" fill-rule="nonzero" d="M287.366 250.433s.677 4.949-.296 4.949c-.972 0-1.226-5.546-1.395-3.626-.17 1.92-.296 4.351-.93 3.626-.635-.725.676-6.1.126-4.607-.55 1.493-.888 4.308-1.776 4.266-.888-.043.339-2.901-.126-2.987-.466-.085-1.396 3.712-2.2 3.243-.803-.47.677-3.584-.168-2.432-.846 1.152-1.1 2.517-1.86 2.346-.762-.17.084-1.663.549-2.389.465-.725 7.61-3.498 7.822-3.157.212.342.254.768.254.768"/><path fill="#E93737" fill-rule="nonzero" d="M276.457 255.297s17.083-4.992 25.032-11.348c7.95-6.356 12.558-12.542 8.076-19.496-4.482-6.953-15.01-1.663-20.085.598-5.074 2.26-21.713 5.458-29.651 5.438-7.94-.02-18.595-.618-24.134-2.282-5.54-1.663-14.377-4.18-17.083 2.603-2.706 6.783.465 13.438 5.117 15.699 4.65 2.26 18.985 7.124 26.342 6.655l7.358-.47s3.171-3.54 2.326-8.702l4.44 3.242s2.536-.043 3.467-.384c.93-.341 6.089 12.158 8.795 8.447"/><path fill="#7D4439" fill-rule="nonzero" d="M271.932 255.894s-7.442 2.773-9.218 3.925c-1.775 1.151-5.454 2.133-7.23.895-1.776-1.237-.719-7.38-.719-7.38s5.962-1.365 6.639-2.303c.676-.939 6.089-4.053 6.089-4.053l4.44 8.916z"/><path fill="#F0ECEC" fill-rule="nonzero" d="M255.403 253.82s-.384-.998-1.568-.784c-1.184.213-12.22-1.024-15.392-1.92-3.17-.896-9.894 5.46-6.976 9.94 2.917 4.479 6.892 2.346 10.486 2.047 3.594-.298 10.571.726 12.136.214 1.564-.512 3.129-1.45 3.17-2.56.043-1.11-1.856-6.937-1.856-6.937"/><path fill="#E0D3CC" fill-rule="nonzero" d="M239.267 251.7s-4.671 2.317-5.517 5.516c-.846 3.2-.453 5.761-.453 5.761s-4.433-2.107-1.905-7.112c2.527-5.005 6.5-5.416 7.875-4.677 1.375.738 0 .512 0 .512"/><path fill="#EEDFD9" fill-rule="nonzero" d="M239.784 251.592s1.915 3.065 2.169 5.283c0 0-.17.427 1.945.384 2.114-.043 11.97-2.225 11.97-2.225s2.121 5.124 1.355 6.448c-.767 1.323-15.27-1.194-15.27-1.194s-.592-.341-.973-.043c-.38.299-2.345 3.034-5.041 3.586 0 0 4.196-2.263 4.534-5.25.338-2.986-.689-6.99-.689-6.99"/><path fill="#FFF" fill-rule="nonzero" d="M253.708 254.7s-.127 2.9.423 4.521 1.006 3.035.059 2.862c-.947-.174-1.962-6.616-1.412-7.17.55-.555.888-.726.93-.214"/><path fill="#FFF" fill-rule="nonzero" d="M252.143 255.04s-.126 2.901.423 4.523c.55 1.62 1.007 3.035.06 2.86-.948-.173-1.963-6.615-1.413-7.17.55-.554.888-.724.93-.212m-5.539.102s-.127 2.653.423 4.136c.55 1.482 1.006 2.776.06 2.617-.948-.16-1.963-6.051-1.413-6.558.55-.508.888-.664.93-.195m-2.114.322s-.127 2.477.423 3.86c.55 1.385 1.006 2.592.059 2.444-.947-.149-1.962-5.648-1.412-6.122.55-.473.888-.619.93-.182m-1.52-.178s-.473 2.433-.124 3.882c.35 1.448.631 2.709-.285 2.426-.917-.282-1.147-5.872-.537-6.262.611-.39.966-.485.947-.046"/><path fill="#FFF" fill-rule="nonzero" d="M250.177 255.227s.168 2.899.88 4.455c.71 1.555 1.308 2.915.348 2.84-.96-.075-2.622-6.379-2.132-6.987.49-.608.81-.813.904-.308"/><path fill="#FFF" fill-rule="nonzero" d="M249.348 255.173s-.571 2.846-.278 4.534c.294 1.687.528 3.155-.381 2.836-.91-.32-.921-6.843-.293-7.305.629-.461.989-.577.952-.065m6.341-.333s-2.658.585-2.108 3.827c.55 3.242 3.889 2.328 3.889 2.328s.791-5.333-1.781-6.156"/><path fill="#000" fill-rule="nonzero" d="m293.092 226.485-23.34 18.575-5.053 2.147-5.35-3.362-18.373-11.727-.175.28 18.373 11.727 5.496 3.454 5.25-2.231 23.375-18.603z"/><path fill="#F0ECEC" fill-rule="nonzero" d="M258.782 242.072s3.806 1.066 4.863 2.9c1.057 1.835.719 4.992-2.41 6.315-3.13 1.322-4.398 2.431-3.595.34.804-2.09 2.284-5.929 1.142-9.555m11.078 2.432s.381 4.266 2.707 7.593c2.325 3.328 4.397 3.669 3.636 4.48-.761.81-1.945 1.194-2.706 2.218-.761 1.024-.719.98-2.495-1.152-1.776-2.133-5.666-6.868-5.75-11.092 0 0 4.27-3.455 4.608-2.047"/><g fill-rule="nonzero"><path d="M265.246 168.846s.95 2.271 2.93 1.408l-2.93-1.408zm-3.205-6.973s.938-1.133 1.786-1.61c.523-.296 3.752-.927 3.87-.26.115.65-.217.673-1.505.885-1.287.211-1.89.264-2.567.584-.676.321-1.44.758-1.584.4m12.455.798s.119-.687-.045-1.136c-.164-.448-2.191-2.314-2.786-2.152-.945.259-.604.715.592 1.527.962.653 1.346.904 1.709 1.364.495.629.458.498.53.397M269.943 160.907l.313.1-.03.1a23.048 23.048 0 0 0-.33 1.205 17.7 17.7 0 0 0-.221 1.036l-.017.098c-.143.836-.163 1.475-.035 1.819l.007.02c.729 1.818-.26 2.74-2.338 2.095l-.063-.02.1-.316c1.871.604 2.621-.076 1.997-1.635-.172-.43-.146-1.158.026-2.12.06-.336.136-.69.225-1.057.072-.291.147-.575.223-.843l.029-.1.049-.168.04-.133.025-.081z" fill="#000"/><path fill="#C86A5D" d="m261.837 173.58.16-.29.06.033.053.028c.081.044.174.091.277.142l.045.023c.346.17.73.34 1.138.5.94.365 1.868.614 2.732.695.392.037.763.038 1.11 0l.07-.008.04.329a5.78 5.78 0 0 1-1.25.01c-.898-.085-1.854-.342-2.82-.718a14.67 14.67 0 0 1-1.164-.51l-.134-.067-.16-.083-.093-.05-.064-.035z"/><path fill="#000" d="M266.225 163.11a.244.244 0 0 1-.167-.065 1.523 1.523 0 0 0-.995-.344 1.93 1.93 0 0 0-1.013.325.245.245 0 0 1-.345-.049.25.25 0 0 1 .046-.347 2.404 2.404 0 0 1 1.294-.426 2.008 2.008 0 0 1 1.346.475c.1.093.107.25.015.351a.244.244 0 0 1-.181.08m6.905.758a.244.244 0 0 1-.167-.066 1.52 1.52 0 0 0-.995-.344 1.948 1.948 0 0 0-1.012.324.245.245 0 0 1-.346-.046.25.25 0 0 1 .046-.349 2.404 2.404 0 0 1 1.294-.426 2.01 2.01 0 0 1 1.346.475c.1.093.107.25.015.351a.244.244 0 0 1-.181.08"/></g><path fill="#49352E" fill-rule="nonzero" d="M257.247 159.512s.739-2.898 6.608-5.673c4.834-2.285 10.343 1.242 10.918 2.153.424.672.82-7.867-8.127-9.855-7.587-1.685-13.75 6.584-11.205 13.955 0 0 .328-.828 1.806-.58"/><g transform="translate(252.382 139.002)"><mask id="f" fill="#fff"><use xlink:href="#e"/></mask><path fill="#49352E" fill-rule="nonzero" d="M12.774 2.14c1.851 2.593.69 6.63-2.594 9.017-3.284 2.387-7.447 2.22-9.299-.373C-.97 8.19.191 4.154 3.475 1.767c3.284-2.387 7.447-2.22 9.299.373" mask="url(#f)"/></g><g transform="translate(256.814 153.247)"><mask id="h" fill="#fff"><use xlink:href="#g"/></mask><path fill="#49352E" fill-rule="nonzero" d="M1.54 1.586s-2.274 5.382-.466 8.822c1.808 3.44-2.383 9.97-.552 13.112 0 0-.116-2.59 1.537-5.89 1.653-3.302 2.4-4.67 1.367-7.219C2.393 7.863 5.453 1.094 7.205.012L1.54 1.586z" mask="url(#h)"/></g><g fill="#000" fill-rule="nonzero"><path d="M264.632 158.999c-1.732 0-3.136 1.416-3.136 3.163 0 1.747 1.404 3.164 3.136 3.164 1.731 0 3.135-1.417 3.135-3.164S266.363 159 264.632 159zm0 .745a2.407 2.407 0 0 1 2.396 2.418 2.407 2.407 0 0 1-2.396 2.418 2.407 2.407 0 0 1-2.397-2.418 2.407 2.407 0 0 1 2.397-2.418zm7.71.009c-1.732 0-3.136 1.416-3.136 3.164 0 1.747 1.404 3.163 3.136 3.163 1.731 0 3.135-1.416 3.135-3.163 0-1.748-1.404-3.164-3.135-3.164zm0 .746a2.407 2.407 0 0 1 2.396 2.418 2.407 2.407 0 0 1-2.396 2.417 2.407 2.407 0 0 1-2.397-2.417 2.407 2.407 0 0 1 2.397-2.418z"/><path d="M257.336 159.896a.368.368 0 0 1 .464-.214l.016.006 4.105 1.657c.19.076.281.293.206.484a.368.368 0 0 1-.464.214l-.017-.006-4.104-1.657a.374.374 0 0 1-.206-.484zm9.726 2.423a.37.37 0 0 1 .391-.331l.017.001 2.153.242a.372.372 0 0 1 .326.412.37.37 0 0 1-.39.33l-.018-.001-2.152-.242a.372.372 0 0 1-.327-.411z"/></g></g></g></svg>