<svg xmlns="http://www.w3.org/2000/svg" viewBox="0 0 78 40" width="78" height="40"><path d="M30.32 12.25h3V26.7h-3zm4.68 9.5A5.25 5.25 0 1 1 40.22 27 5.18 5.18 0 0 1 35 21.75zm7.52 0a2.28 2.28 0 1 0-2.28 2.34 2.22 2.22 0 0 0 2.26-2.34z"/><path d="M57.31 16.8v9.41c0 3.32-2.6 4.73-5.23 4.73a5 5 0 0 1-4.69-2.4l2.53-1.46a2.27 2.27 0 0 0 2.26 1.25 2 2 0 0 0 2.24-2.12v-.91a3.53 3.53 0 0 1-2.89 1.28 5 5 0 0 1 0-10 3.53 3.53 0 0 1 2.89 1.28v-1zm-2.89 4.75a2.4 2.4 0 1 0-2.4 2.3 2.24 2.24 0 0 0 2.4-2.3zm4.58.2A5.25 5.25 0 1 1 64.24 27 5.19 5.19 0 0 1 59 21.75zm7.52 0a2.28 2.28 0 1 0-2.27 2.34 2.22 2.22 0 0 0 2.26-2.34zM15.45 9.65v-4H2.05v29.2h13.4V30.6a10.35 10.35 0 0 1 0-20.7zm0 0v20.7a10.35 10.35 0 0 0 0-20.7z"/><circle cx="73.52" cy="14.54" r="2.2"/></svg>