<svg xmlns="http://www.w3.org/2000/svg" version="1.1" viewBox="0 0 72 48" id="svg1659" width="72" height="48"><path fill-rule="evenodd" fill="#fff" clip-rule="evenodd" id="rect1639" style="image-rendering:optimizeQuality;shape-rendering:geometricPrecision;text-rendering:geometricPrecision" d="M0 0h72v48H0z"/><path fill="#005a9c" d="m2.032 8.005 9.532 32.17h.396l5.957-19.935 5.96 19.935h.396l7.142-24.105c1.364-4.604.688-4.094 4.758-4.094h3.358l-6.637 11.52h2.664c1.721 0 3.534.62 4.488 1.865.134.173.254.36.365.557.026.045.05.092.075.138.104.199.202.404.287.625.334.878.504 1.933.504 3.168 0 1.748-.385 3.243-1.153 4.488-.208.338-.43.626-.664.872-.15.157-.305.293-.465.414l-.04.029c-.164.119-.33.22-.503.3a2.689 2.689 0 0 1-.619.194 2.757 2.757 0 0 1-.527.057l-.024-.002-.023-.002-.012-.002-.027-.002a4.406 4.406 0 0 1-.695-.063h-.004c-.062-.01-.118-.035-.178-.049a.425.425 0 0 1-.037-.01c-.015-.003-.03-.01-.045-.013-.153-.036-.306-.07-.451-.125a3.88 3.88 0 0 1-.658-.326 4.245 4.245 0 0 1-.608-.457c-.414-.45-.726-.962-1.056-1.461h-4.055c.275.817.616 1.556 1.01 2.234l-.012.022c.042.077.1.149.146.224.28.455.582.887.918 1.276.3.346.62.666.965.96.171.147.347.285.526.413l.002.002c.178.128.36.246.544.355.116.068.234.127.352.188l.047.025c.057.032.113.064.172.092l.006.002c.192.091.386.173.586.246l.007.004h.002c.198.072.399.135.604.19l.012.003h.002c.204.054.412.099.623.135l.015.002c.189.032.38.054.575.072l.013.002c.007.002.014.004.022.004l.033.004h.002l.016.002h.002c.116.01.238.01.357.014.025 0 .05.003.074.004l.047.002c.06.003.12.008.182.008h.023c.178 0 .348-.017.522-.028v-.01c.186-.013.378-.015.56-.039l.076-.011a7.42 7.42 0 0 0 .996-.211c1.503-.425 2.794-1.31 3.862-2.68 1.549-1.986 2.324-4.435 2.324-7.348 0-2.356-.53-4.407-1.59-6.154a7.988 7.988 0 0 0-3.283-3.04c-.043-.023-.09-.04-.133-.061a9.15 9.15 0 0 0-.547-.25 9.789 9.789 0 0 0-.722-.264c2.324-4.026 4.69-8.028 6.978-12.074H33.806c-3.624 0-4.353.617-5.611 4.896l-4.319 14.684-5.76-19.58h-4.168l.954 3.199c.794 2.664.723 3.972-.022 6.494l-2.92 9.887-5.758-19.58Z" id="path1599"/><path id="path6" d="M66.92 8.006c-.819 0-1.554.295-2.111.861-.591.6-.92 1.376-.92 2.178a3 3 0 0 0 .887 2.128 2.979 2.979 0 0 0 2.145.912c.793 0 1.562-.321 2.161-.903.574-.557.886-1.301.886-2.137 0-.811-.321-1.57-.878-2.136a3 3 0 0 0-2.17-.903zm2.643 3.065a2.52 2.52 0 0 1-.769 1.832 2.667 2.667 0 0 1-1.891.777 2.59 2.59 0 0 1-1.84-.785 2.624 2.624 0 0 1-.777-1.849c0-.692.287-1.368.802-1.891a2.54 2.54 0 0 1 1.84-.751c.726 0 1.376.271 1.883.785.49.489.752 1.148.752 1.882zm-2.558-1.807h-1.3v3.445h.65V11.24h.642l.701 1.469h.726l-.769-1.571c.498-.101.785-.439.785-.928 0-.625-.473-.946-1.435-.946zm-.119.422c.608 0 .886.169.886.591 0 .405-.278.549-.87.549h-.549v-1.14Z"/><path id="path8" d="m61.807 7.825.338 2.053c.315 1.917-.005 2.711-.858 4.341l-1.195 2.288s-.918-1.941-2.443-3.015c-1.285-.905-2.122-1.102-3.431-.832-1.681.347-3.587 2.357-4.419 4.835-.995 2.965-1.005 4.4-1.04 5.718-.056 2.113.277 3.362.277 3.362s-1.451-2.686-1.438-6.62c.009-2.808.451-5.354 1.75-7.867 1.143-2.209 2.842-3.535 4.35-3.691 1.559-.161 2.791.59 3.743 1.404.999.854 2.01 2.72 2.01 2.72Z"/><path id="path10" d="M62.102 31.063s-1.057 1.889-1.715 2.617c-.659.728-1.837 2.01-3.292 2.651-1.456.641-2.218.762-3.656.624-1.437-.138-2.773-.97-3.241-1.317-.468-.347-1.664-1.369-2.339-2.322-.676-.954-1.733-2.859-1.733-2.859s.589 1.911.958 2.721c.212.466.864 1.894 1.79 3.136.862 1.159 2.539 3.154 5.086 3.604 2.547.451 4.297-.693 4.73-.971.433-.277 1.432-.93 2.01-1.548.603-.645.923-1.108 1.325-1.921.292-.591.545-1.978.382-2.83z"/></svg>