<svg xmlns="http://www.w3.org/2000/svg" xmlns:xlink="http://www.w3.org/1999/xlink" viewBox="0 0 500 285"><defs><linearGradient x1="56.522%" y1="15.293%" x2="37.458%" y2="71.504%" id="linearGradient-5"><stop stop-color="#E3A797" offset="0%"/><stop stop-color="#BD6858" offset="76.449%"/><stop stop-color="#AE5848" offset="100%"/></linearGradient><linearGradient x1="166.504%" y1="97.425%" x2="43.141%" y2="20.932%" id="linearGradient-6"><stop stop-color="#E3AB9B" offset="0%"/><stop stop-color="#C37362" offset="100%"/></linearGradient><linearGradient x1="43.847%" y1="-21.261%" x2="22.275%" y2="20.597%" id="linearGradient-7"><stop stop-color="#E3A797" offset="0%"/><stop stop-color="#C26E5E" offset="100%"/></linearGradient><path d="M99.553 0c48.048 0 61.44 10.13 79.707 21.234 17.52 10.894 53.918 56.678 76.894 85.183L324 187.975 300.488 226l-213.51-28.116.13-.128C34.199 189.454 0 152.768 0 99.394 0 44.5 44.571 0 99.553 0Z" id="path-1"/><path d="M152.656 84.861c5.116 16.765-5.116 33.905-18.08 36.115C127.746 122.14 11.713 80.92 9.698 78.518c-26.68-31.823 5.912-98.55 46.466-72.692 11.437 7.294 91.375 62.27 96.49 79.035Z" id="path-3"/></defs><g id="hero/404" stroke="none" stroke-width="1" fill="none" fill-rule="evenodd"><path id="Path-32-Copy" fill="#EE9696" d="M124 200.356 343.282 228 361 190.417 258.655 67z"/><path d="M128.626 200.244c55.47 6.861 211.848-34.023 173.346-80.885-21.104-25.686-65.783-83.696-85.802-96.141C197.911 12.12 184.527 2 136.503 2 81.549 2 37 46.466 37 101.318s36.155 92.066 91.626 98.926Z" id="Oval-Copy-19" fill="#EE9696"/><g id="404" transform="translate(37 1)"><mask id="mask-2" fill="#fff"><use xlink:href="#path-1"/></mask><use id="Mask" fill="#EE9696" xlink:href="#path-1"/><text stroke="#FFF" stroke-width=".861" fill="#FFF" fill-rule="nonzero" mask="url(#mask-2)" font-family="NotoSans-Bold, Noto Sans" font-size="126.999" font-weight="bold" letter-spacing="6.017">
	<tspan x="22.626" y="165.366">404</tspan>
</text></g><g id="Group-3" transform="translate(303 161)"><mask id="mask-4" fill="#fff"><use xlink:href="#path-3"/></mask><g mask="url(#mask-4)"><g transform="translate(17.735 10.863)"><path d="M102.157 47.6c4.99 5.947 10.246 14.351 13.67 24.518 3.425 10.166 4.974 19.857 4.974 19.857L96.517 123.33s-14.141-8.156-20.619-12.545c-6.478-4.389-3.464-13.752-2.86-15.624.602-1.873 3.052-15.61 4.174-29.818.638-8.083-6.67-22.7-13.223-34.812 9.375-4.9 19.92-7.273 30.647-6.634 2.27 10.581 4.996 20.695 7.521 23.704Z" id="Fill-5" fill="url(#linearGradient-5)" transform="rotate(145 92.395 73.561)"/><g id="Group" stroke-width="1" fill="none" transform="rotate(-5 105.658 4.613)"><g id="Group-7-Copy-2" transform="rotate(32 12.312 43.63)"><ellipse id="Oval" fill="#FFF" cx="11.744" cy="24.195" rx="11.744" ry="11.815"/><path d="M13.941 47.258c12.972 0 23.488-10.579 23.488-23.629S26.913 0 13.941 0v47.258Z" id="Oval" fill="#222054"/><path id="Rectangle" fill="#222054" d="M26.424 12.381h68.995V36.01H26.424z"/></g></g><g id="Group-2" stroke-width="1" fill="none" transform="translate(48.645 7.798)"><path d="M10.311 71.416C-.187 61.123-.168 57.726.053 50.496c.221-7.23 5.588-6.043 7.37-4.152 1.784 1.891 3.231 12.275 5.194 15.782 1.278 2.283 7.677 9.496 6.776 11.686-.483 1.173-5.42 1.193-9.082-2.396Z" id="Path-54" fill="#C37362"/><path d="M18.34 76.087C7.937 66.108 7.957 62.814 8.176 55.804c.219-7.009 5.062-8.048 7.304-4.024s3.201 11.9 5.146 15.3c1.945 3.4 6.289 14.34-2.284 9.007Z" id="Path-54-Copy" fill="#C37362"/><path d="M17.904 75.544c-10.35-9.9-2.301-9.912-2.083-16.866.217-6.954 4.419-6.372 7.265-3.993 2.847 2.38 3.185 11.807 5.12 15.18 1.934 3.373.047 15.578-10.302 5.679Z" id="Path-54-Copy-2" fill="url(#linearGradient-6)"/><path d="M39.807 33.569c2.347 8.562.443 32.048 7.256 44.13 6.813 12.084 12.722 23.562 19.712 28.802 6.7 5.024 8.607-1.749 7.223-6.539-.739-2.556-5.008-9.848-6.214-11.642.05-3.226-1.946-8.644-2.08-10.594 3.07-2.637 9.565-15.66 11.42-25.043 2.188-11.065-4.26-12.079-8.205-24.946C59.476-3.07 25.582 4.829 27.084 10.31l12.723 23.258Z" id="Fill-11" fill="url(#linearGradient-7)" transform="rotate(145 52.301 56.72)"/></g></g></g></g></g></svg>