<?xml version="1.0" encoding="UTF-8" standalone="no"?>
<svg
   viewBox="0 0 512 512"
   version="1.1"
   id="svg6"
   xmlns="http://www.w3.org/2000/svg"
   xmlns:svg="http://www.w3.org/2000/svg">
  <defs
     id="defs10" />
  <path
     d="M0 0h512v512H0z"
     fill="#999999"
     id="path2" />
  <path
     d="m 256,96 c 48.6,0 88,39.4 88,88 0,48.6 -39.4,88 -88,88 -48.6,0 -88,-39.4 -88,-88 0,-48.6 39.4,-88 88,-88 z m 0,352 C 197.3,448 144.7,421.4 109.5,379.8 128.3,344.4 165.1,320 208,320 c 2.4,0 4.8,0.4 7.1,1.1 13,4.2 26.6,6.9 40.9,6.9 14.3,0 28,-2.7 40.9,-6.9 2.3,-0.7 4.7,-1.1 7.1,-1.1 42.9,0 79.7,24.4 98.5,59.8 C 367.3,421.4 314.7,448 256,448 Z"
     fill="#ffffff"
     id="path4" />
</svg>
