<svg xmlns="http://www.w3.org/2000/svg" viewBox="0 0 61 39" width="61px" height="39px"><defs/><g fill="none" fill-rule="evenodd"><path fill="#005a9c" d="M0 0h61v33l-30.5 6L0 33z"/><path fill="#fff" fill-rule="nonzero" d="M14.425 24c1.453 0 2.603-.328 3.45-.984s1.27-1.57 1.27-2.743c0-.826-.18-1.488-.541-1.986-.36-.498-.948-.838-1.762-1.02v-.087c.597-.1 1.076-.396 1.437-.888s.54-1.122.54-1.89c0-1.13-.411-1.955-1.235-2.474-.823-.518-2.146-.778-3.968-.778H9.617V24zm-.501-7.76h-1.582v-2.857h1.432c.78 0 1.35.107 1.71.32.36.214.54.568.54 1.06 0 .527-.165.905-.496 1.133s-.866.343-1.604.343zm.193 5.51h-1.775v-3.349h1.687c1.524 0 2.285.534 2.285 1.6 0 .592-.178 1.031-.536 1.318-.357.287-.91.431-1.66.431zM29.247 24v-2.25H24.57v-3.313h4.35v-2.233h-4.35v-2.821h4.675V11.15h-7.4V24zm7.772 0V13.418h3.49V11.15h-9.704v2.268h3.49V24zm6.305 0l.932-3.059h4.684L49.872 24h2.935l-4.552-12.902h-3.331L40.388 24zm4.966-5.344h-3.35c.914-2.959 1.468-4.813 1.661-5.563.047.21.125.498.233.861.109.363.593 1.93 1.455 4.702z"/></g></svg>