<svg xmlns="http://www.w3.org/2000/svg" xmlns:xlink="http://www.w3.org/1999/xlink" viewBox="0 0 500 387"><defs/><defs><path id="a" d="M0 0h500v387H0z"/><path id="c" d="M.127.02h36.239v85.434H.127z"/><path id="e" d="M.127.02h40.398v94.567H.127z"/><path id="g" d="M.127.194h41.158v95.354H.127z"/><path id="i" d="M.253.107h71.543V28.1H.253z"/><path id="k" d="M.227.194h35.828V31.46H.227z"/><path id="m" d="M.283.157h35.772V31.31H.283z"/><path id="o" d="M.133.197h25.645v9.983H.133z"/><path id="q" d="M.124.008H41.48V31.67H.124z"/><path id="s" d="M.207.183H12.93v5.659H.207z"/><path id="u" d="M0 .286h27.324v8.222H0z"/><path id="w" d="M.186.16H18.11v5.96H.186z"/><path id="y" d="M.09.004h68.718v112.947H.09z"/><path id="A" d="M0 .022h42.874V78.97H0z"/></defs><g fill="none" fill-rule="evenodd"><mask id="b" fill="#fff"><use xlink:href="#a"/></mask><g mask="url(#b)"><path fill="#E93737" fill-rule="nonzero" d="M328.681 193.18h137.894V27.257H328.681z"/><path fill="#FCEBEC" fill-rule="nonzero" d="M336.445 184.461H460.02V35.498H336.445z"/><path fill="#237978" fill-rule="nonzero" d="M427.425 96.407l-18.388 39.094-20.196-35.59c2.855-29.722 20.578-61.014 20.578-61.014 4.816 8.364 8.49 16.232 11.226 23.604l-11.138 34.997-.233 17.595 14.174-44.111c2.712 9.361 3.877 17.836 3.977 25.425"/><path fill="#EECCDC" fill-rule="nonzero" d="M423.448 70.982l-14.174 44.111.234-17.595 11.137-34.997a122.417 122.417 0 012.803 8.481"/><path fill="#EECCDC" fill-rule="nonzero" d="M408.391 145.507c-17.38-9.393-21.315-27.192-19.55-45.597l20.196 35.59 18.388-39.093c.44 32.84-19.034 49.1-19.034 49.1"/><path fill="#0A4343" fill-rule="nonzero" d="M408.39 145.507l1.029-106.61M409.248 145.515l-1.713-.016 1.028-106.61 1.713.016z"/><g transform="translate(335.964 59.079)"><mask id="d" fill="#fff"><use xlink:href="#c"/></mask><path fill="#237978" fill-rule="nonzero" d="M34.12 42.347l2.246 43.107L1.724 63.496C-9.801 35.93-8.947.02-8.947.02-.744 5.148 6.216 10.37 12.114 15.598l6.71 36.097 8.107 15.637-8.335-45.562c6.817 6.992 11.85 13.927 15.525 20.577" mask="url(#d)"/></g><path fill="#EECCDC" fill-rule="nonzero" d="M354.56 80.849l8.335 45.562-8.108-15.637-6.71-36.098a123.047 123.047 0 016.483 6.173"/><path fill="#EECCDC" fill-rule="nonzero" d="M376.49 153.665c-19.779-.155-31.662-14.022-38.802-31.09l34.642 21.958-2.246-43.107c15.908 28.776 6.405 52.24 6.405 52.24"/><g transform="translate(335.964 59.079)"><mask id="f" fill="#fff"><use xlink:href="#e"/></mask><path fill="#0A4343" fill-rule="nonzero" d="M40.525 94.587L-8.947.02" mask="url(#f)"/></g><g transform="translate(335.964 58.51)"><mask id="h" fill="#fff"><use xlink:href="#g"/></mask><path fill="#0A4343" fill-rule="nonzero" d="M39.765 95.548L-9.707.982l1.52-.788 49.472 94.567z" mask="url(#h)"/></g><path fill="#EECCDC" fill-rule="nonzero" d="M455.152 179.06l-7.946-2.502-63.597-20.49-.123-.17 34.723-7.856c5.59 1.943 11.5 5.108 17.58 9.95l-37.114 2.65 13.104 4.066 29.412-2.003c4.602 4.38 9.276 9.767 13.96 16.356"/><g transform="translate(383.356 155.96)"><mask id="j" fill="#fff"><use xlink:href="#i"/></mask><path fill="#237978" fill-rule="nonzero" d="M71.796 23.1l-.09.029c-1.758.545-29.388 8.95-51.554 4.557L.667.678.253.108l63.597 20.49 7.946 2.502z" mask="url(#j)"/></g><path fill="#EECCDC" fill-rule="nonzero" d="M441.19 162.705l-29.411 2.003-13.104-4.066 37.114-2.65a82.405 82.405 0 015.402 4.713"/><path fill="#EECCDC" fill-rule="nonzero" d="M384.023 156.639l19.485 27.007c-14.183-2.812-26.13-10.867-27.636-29.575 0 0 .157-.125.463-.347 2.972-2.145 19.942-13.31 41.873-5.682l-34.722 7.855.124.17.413.572z"/><path fill="#0A4343" fill-rule="nonzero" d="M446.978 177.274l-63.183-19.92-8.15-2.568.455-1.431 71.334 22.487z"/><g transform="translate(423.61 113.912)"><mask id="l" fill="#fff"><use xlink:href="#k"/></mask><path fill="#EECCDC" fill-rule="nonzero" d="M48.123.194L42.8 3.613.283 31.31l-.056.15 27.044-1.157c3.708-2.54 7.406-6.038 10.891-10.8l-27.751 5.451 8.792-5.592 21.972-4.391c2.494-4.13 4.838-9.012 6.948-14.777" mask="url(#l)"/></g><g transform="translate(423.61 113.912)"><mask id="n" fill="#fff"><use xlink:href="#m"/></mask><path fill="#237978" fill-rule="nonzero" d="M48.123.194l-.07-.003c-1.4-.05-23.354-.708-38.726 6.93L.472 30.809l-.19.501L42.8 3.613 48.123.194z" mask="url(#n)"/></g><g transform="translate(433.889 128.686)"><mask id="p" fill="#fff"><use xlink:href="#o"/></mask><path fill="#EECCDC" fill-rule="nonzero" d="M30.898.197L8.925 4.587.133 10.18l27.751-5.45A62.435 62.435 0 0030.898.197" mask="url(#p)"/></g><path fill="#EECCDC" fill-rule="nonzero" d="M424.082 144.721l8.856-23.688c-9.836 4.889-16.977 13.176-14.317 27.196 0 0 .14.06.41.162 2.61.98 17.302 5.788 31.85-4.176l-27.043 1.157.056-.15.188-.5z"/><g transform="translate(418.186 117.037)"><mask id="r" fill="#fff"><use xlink:href="#q"/></mask><path fill="#0A4343" fill-rule="nonzero" d="M.746 31.67l-.622-.958L47.913.008l.622.96z" mask="url(#r)"/></g><g transform="translate(446.736 175.564)"><mask id="t" fill="#fff"><use xlink:href="#s"/></mask><path fill="#0A4343" fill-rule="nonzero" d="M12.743 5.842L.207 1.805.734.183 13.27 4.22z" mask="url(#t)"/></g><path fill="#0A4343" fill-rule="nonzero" d="M383.346 156.879l-9.955-3.208.527-1.622 9.955 3.208z"/><g><g fill-rule="nonzero"><path fill="#F6CBC3" d="M337.494 380.367s24.353 73.868 13.822 161.586c-10.53 87.718-28.302 265.792-28.302 265.792h-40.149s-3.29-168.841-9.214-226.22c-5.924-57.38-8.557-98.27-8.557-98.27l-9.872-41.551-3.291 54.74s-68.451 263.814-73.717 315.918l-38.174-.66s21.72-313.278 25.669-337.022c3.949-23.743 32.909-87.058 32.909-87.058l138.876-7.255z"/><path fill="#204EB2" d="M338.267 345.348s11.914 73.203 28.803 155.067c0 0 1.239 5.584-12.695 3.723-13.934-1.862-54.186.31-72.764 4.033-18.578 3.723-20.126 3.723-20.126-9.308 0-13.031-2.477-44.368-2.477-44.368s-1.239 56.469-7.431 54.917c-6.193-1.55-40.711-23.033-100.698-11.96 0 0-6.709-1.582-4.736-8.7 1.973-7.119 37.42-108.385 42.063-143.404h150.06z"/></g><g fill-rule="nonzero"><path fill="#F6CBC3" d="M280.573 118.587s1.284 28.252 17.751 38.224c14.942 9.048-16.713 61.552-50.765 58.42-18.64-1.714-23.009-52.725-23.009-52.725s15.051-2.91 9.491-25.879l46.532-18.04z"/><path fill="#F6CBC3" d="M253.306 147.313c22.076-2.672 38.008-17.197 40.239-41.294 6.417 1.023 7.93-15.712 6.143-21.087-1.789-5.384-7.628-2.236-7.628-2.236a22.477 22.477 0 01-.825-2.672c-9.643-39.586-36.653-38.016-36.653-38.016-49.632 2.588-38.003 53.297-35.167 66.75 2.836 13.453 12.55 41.135 33.89 38.555zM401.883 242.52c39.307 62.315 51.707 100.124 37.201 113.425-14.506 13.302-42.178-2.88-83.017-48.543 2.104-10.196 7.538-21.32 16.3-33.373 8.763-12.052 18.602-22.555 29.516-31.51z"/><path fill="#F9C818" d="M154.17 286.794l28.689-3.342s-7.34 98.826-4.582 98.826c1.482 0 35.943 18.697 84.236 18.697 37.1 0 82.608-12.278 84.532-12.382.237-.014.466-.174.685-.47-.619-6.817-1.11-18.869-1.607-32.177-.348-9.337-.702-19.29-1.11-28.484-.379-8.553-.803-16.449-1.314-22.583-2.227-26.753-.686-51.167-.686-51.167L354 283.546l69.643-25.392s-23.255-33.918-50.98-63.418c-27.506-29.27-71.622-36.696-72.311-36.807-.004-.004-.007-.004-.007-.004s2.477 40.383-39.257 43.485c-34.7 2.58-36.498-39.043-36.498-39.043s-40.561 10.597-52.198 20.53c-11.636 9.931-62.97 77.743-62.97 79.455 0 1.713 44.75 24.442 44.75 24.442z"/><path fill="#F9C818" d="M345.014 327.462c.407 9.194.761 19.147 1.11 28.483.08-6.325-.171-15.421-1.11-28.483"/><path fill="#204EB2" d="M200.801 298.419l36.484 2.967a3.996 3.996 0 004.305-3.661l5.831-71.796a3.997 3.997 0 00-3.658-4.309l-36.483-2.967a3.996 3.996 0 00-4.306 3.661l-5.83 71.795a3.997 3.997 0 003.657 4.31"/><path fill="#025B9C" d="M197.083 296.429l36.614 2.978a3.93 3.93 0 004.235-3.6l5.63-69.313a3.931 3.931 0 00-3.599-4.237l-36.615-2.978a3.93 3.93 0 00-4.234 3.6l-5.63 69.312a3.931 3.931 0 003.599 4.238"/><path fill="#FFF" d="M203.241 227.181a3.774 3.774 0 107.523.612 3.775 3.775 0 10-7.523-.612"/><path fill="#F6CBC3" d="M210.465 293.897s18.296 3.99 18.414-2.348c0 0-12.433-5.164-15.248-4.93-2.815.235-15.834 1.76-15.834 1.76l16.069-7.98 15.951 4.93s3.636.234 5.278-2.348c1.642-2.582-.235-4.108-.235-4.108l-20.877-6.925s-.704-2.23 4.574-2.465c5.278-.235 16.89-1.057 16.89-1.057s2.58-2.23 1.407-6.22c-1.173-3.991-7.74-2.583-7.74-2.583s3.635-3.52-1.877-7.394c0 0-16.89.47-23.106 4.342-6.216 3.874-48.767 30.02-48.767 30.02l-33.12-17.41c-41.916 51.35-53.037 81.77-33.362 91.265 19.675 9.495 60.203-12.689 121.583-66.55z"/><path fill="#C86A5D" d="M192.092 270.812l16.63-9.43 20.706-2.22-.148-1.384-20.85 2.235a.688.688 0 00-.27.087l-16.754 9.5.686 1.212zM125.344 305.623l39.745-24.993-.74-1.18-39.745 24.994zM374.554 277.039l39.87 24.792.735-1.182-39.87-24.793zM193.44 278.459c.104-.071 10.524-7.13 13.242-8.264 2.073-.864 6.217.713 7.638 1.394l.6-1.257c-.23-.11-5.708-2.701-8.773-1.422-2.846 1.187-13.055 8.102-13.488 8.396l.78 1.153z"/><path fill="#F6CBC3" d="M197.02 250.918l-10.267 15.714 9.764-6.145z"/><path fill="#C86A5D" d="M187.123 267.222l9.764-6.145-.74-1.179-9.764 6.145z"/><path fill="#FFF" d="M323.449 305.535l12.226-.24c12.872-.253 23.104-10.901 22.851-23.783l-.764-38.992-55.598 1.091.828 42.24c.217 11.089 9.376 19.902 20.457 19.684"/><g><path fill="#F6CBC3" d="M358.98 255.996s5.017 3.228 6.63 5.2c1.612 1.973.179 2.332 3.762 6.097 3.584 3.766 10.035 13.27-1.254 27.795-11.29 14.525-15.052 13.27-19.71 10.76-4.66-2.511-5.197-4.304-13.978-5.2-8.78-.897-17.202-9.505-17.022-11.657l.179-2.152s-8.063-3.048-7.526-6.455c.537-3.407 2.867-3.049 2.867-3.049s-1.613-1.614-.359-4.483c1.255-2.869 7.168-2.33 13.977-1.434 6.81.896 24.37 4.483 25.445 3.766 1.075-.718.717-1.794-3.404-2.332-4.122-.538-20.787-.717-20.787-5.38 0-4.662 5.018-5.558 14.694-5.379 9.676.18 11.468-.359 13.797.538l2.33.897.358-7.532z"/><path fill="#995B5D" d="M312.787 277.315s-.515-.372 3.32 1.094c1.396.533 3.365 1.09 6.139 1.616 10.393 1.972 26.699 5.56 31.716 6.276 5.018.718.896 1.793-10.572-.538-11.468-2.33-25.12-5.458-25.733-5.663-1.044-.348-4.175-1.392-4.87-2.785M321.35 287.915s8.482 2.977 12.657 4.021c4.432 1.11 7.77 2.614 8.666 1.18.896-1.435 1.971-1.794 1.971-1.794l1.434 1.614s-.244 1.785.537 1.973c1.394.334 4.122.897 4.122.897s-.033 1.004-8.382-.736c-2.071-.432-5.913-1.045-8.348-1.741-2.24-.64-10.328-2.724-11.403-3.62-1.075-.897-1.254-1.794-1.254-1.794"/><path fill="#F9C818" d="M347.69 287.019s.133 7.221-1.904 7.107c-2.038-.114-2.754-.114-3.113-.652-.358-.538.538-2.33.538-4.303 0-1.973 0-2.87 1.612-2.69 1.613.18 2.688.18 2.868.538"/></g></g><path fill="#CE4129" fill-rule="nonzero" d="M260.473 124.194s.084 5.531-7.782 6.522c-7.866.99-11.38 0-11.213-3.55 0 0 1.255-3.88 3.096-4.045 1.841-.165 3.766.826 3.766.826s1.84-2.394 3.765-2.147c1.925.248 5.774 2.477 8.368 2.394"/><g transform="matrix(-1 0 0 1 274.098 80.061)"><mask id="v" fill="#fff"><use xlink:href="#u"/></mask><path fill="#000" fill-rule="nonzero" d="M26.44 8.508S16.284 5.731 13.637 4.942c-2.647-.79-3.201-1.336-6.341-1.033-3.14.304-6.71.972-7.265.365C-.523 3.666 6.495.629 8.835.326c2.34-.304 16.157 1.117 17.928 4.498 1.429 2.729-.323 3.684-.323 3.684" mask="url(#v)"/></g><path fill="#000" fill-rule="nonzero" d="M246.638 127.19c5.735-.755 12.594-1.757 14.746-2.819 1.57-.775 2.149-.58 2.155-.578 0 0-.504-1.787-2.783-.663-2.22 1.095-11.315 2.291-14.304 2.684-5.23.688-5.7.422-6.298.086l-.697 1.204c.578.326 1.124.526 2.361.526 1.012 0 2.486-.134 4.82-.44z"/><g transform="matrix(-1 0 0 1 235.783 86.303)"><mask id="x" fill="#fff"><use xlink:href="#w"/></mask><path fill="#000" fill-rule="nonzero" d="M.201 3.596S.421 1.42 3.113.463c2.69-.957 12.087.61 12.792 1.132.706.521 1.985 1.784 2.206 4.525 0 0-1.018-2.088-2.87-2.436-1.853-.349-7.629 1.218-11.29 1.174C.289 4.815.113 4.38.2 3.596" mask="url(#x)"/></g><path fill="#000" fill-rule="nonzero" d="M251.087 148.724c4.87 0 9.905-1.4 13.515-2.695 4.626-1.658 7.982-3.505 8.015-3.523l-.516-.908c-.13.073-13.17 7.2-23.591 5.937l-.129 1.032c.889.108 1.795.157 2.706.157"/><g fill-rule="nonzero"><path fill="#000" d="M237.913 89.542l-1.338.424.13.414a94.803 94.803 0 011.41 5.045c.375 1.504.696 2.963.947 4.34l.073.409c.61 3.504.697 6.18.151 7.618l-.032.082c-3.12 7.616 1.117 11.478 10.012 8.774l.271-.084-.428-1.321c-8.013 2.53-11.226-.32-8.551-6.85.736-1.797.623-4.847-.112-8.873a71.623 71.623 0 00-.966-4.427 95.85 95.85 0 00-.953-3.532l-.123-.417a87.928 87.928 0 00-.21-.703l-.172-.557-.109-.342z"/><path fill="#C86A5D" d="M272.627 142.606l-.688-1.21-.251.136-.23.12c-.349.182-.746.381-1.187.595l-.192.093a63.122 63.122 0 01-4.874 2.092c-4.025 1.53-8 2.575-11.7 2.914-1.677.154-3.266.158-4.753 0l-.297-.033-.171 1.376c1.678.204 3.467.211 5.35.039 3.846-.353 7.941-1.429 12.076-3.002 1.79-.68 3.467-1.41 4.985-2.14l.574-.279c.244-.12.473-.236.687-.346l.398-.207.273-.148z"/></g><g fill="#000" fill-rule="nonzero"><path d="M244.28 117.51c1.422 0 3.195-.274 5.408-.972l-.428-1.322c-4.122 1.301-7.166 1.195-8.572-.3-1.196-1.27-1.189-3.597.02-6.549.821-2.002.619-5.8-.602-11.29a92.872 92.872 0 00-2.042-7.561l-1.338.424c1.232 3.791 4.117 14.4 2.68 17.908-1.828 4.459-.872 6.818.252 8.012.801.853 2.2 1.65 4.623 1.65"/></g><path fill="#000" fill-rule="nonzero" d="M235.894 96.563a1.065 1.065 0 00-1.44-.06l-.19.175a15.84 15.84 0 01-2.049 1.537c-1.6 1.006-3.215 1.611-4.713 1.636-1.517.024-2.92-.463-4.176-1.3a8.735 8.735 0 01-1.144-.907l-.106-.101a5.672 5.672 0 01-.194-.198l-.066-.075a1.064 1.064 0 00-1.485-.136 1.03 1.03 0 00-.138 1.465l.07.081c.107.12.261.28.463.469.408.385.882.769 1.42 1.127 1.59 1.058 3.399 1.687 5.39 1.655 1.952-.031 3.913-.767 5.812-1.962a17.932 17.932 0 001.824-1.315l.159-.131c.25-.211.436-.38.55-.489a1.03 1.03 0 00.013-1.471zM266.447 93.157a1.065 1.065 0 00-1.44-.06l-.19.174-.16.142a15.84 15.84 0 01-1.888 1.395c-1.6 1.007-3.215 1.612-4.714 1.637-1.517.024-2.92-.463-4.175-1.3a8.736 8.736 0 01-1.144-.907l-.153-.148a4.805 4.805 0 01-.173-.18l-.04-.046a1.064 1.064 0 00-1.486-.136 1.03 1.03 0 00-.138 1.465l.071.081c.107.12.261.28.462.469.41.385.883.768 1.42 1.126 1.59 1.06 3.4 1.688 5.39 1.656 1.952-.032 3.913-.767 5.813-1.962a17.932 17.932 0 001.824-1.315l.158-.132c.251-.21.437-.379.55-.488a1.03 1.03 0 00.013-1.471z"/><g><path fill="#000" fill-rule="nonzero" d="M244.338 54.298s29.723.658 38.31 23.688c8.587 23.03.921 30.741 7.54 44.904 6.617 14.163 18.873 15.383 18.873 15.383s-16.668-10.255-16.913-22.708c-.245-12.454.587-31.39.416-32.056-.17-.665 6.44-2.44 7.669 2.233 0 0 3.893-27.778-11.086-43.826-21.297-22.817-75.377-12.993-73.466 28.418 1.37 29.662-1.145 40.135-1.145 40.135s2.113-11.983 3.137-23.376 3.57-26.194 22.277-32.45c0 0 7.617-6.922 9.888-7.454 2.272-.533-6.324 4.234-5.5 7.109"/><path stroke="#000" stroke-width=".5" d="M244.338 54.298s29.723.658 38.31 23.688c8.587 23.03.921 30.741 7.54 44.904 6.617 14.163 18.873 15.383 18.873 15.383s-16.668-10.255-16.913-22.708c-.245-12.454.587-31.39.416-32.056-.17-.665 6.44-2.44 7.669 2.233 0 0 3.893-27.778-11.086-43.826-21.297-22.817-75.377-12.993-73.466 28.418 1.37 29.662-1.145 40.135-1.145 40.135s2.113-11.983 3.137-23.376 3.57-26.194 22.277-32.45c0 0 7.617-6.922 9.888-7.454 2.272-.533-6.324 4.234-5.5 7.109z"/><path fill="#000" fill-rule="nonzero" d="M275.478 49.338s13.103 7.831 23.06-4.7c9.958-12.53-5.24-24.538-18.343-24.538s-17.82 7.831-16.771 16.185c1.048 8.354 6.289 10.964 12.054 13.053"/><path stroke="#000" stroke-width=".5" d="M275.478 49.338s13.103 7.831 23.06-4.7c9.958-12.53-5.24-24.538-18.343-24.538s-17.82 7.831-16.771 16.185c1.048 8.354 6.289 10.964 12.054 13.053z"/><path fill="#000" fill-rule="nonzero" d="M221.905 20.954s-14.74 2.399-15.533 17.513c-.79 15.114 17.956 14.433 28.285 6.403 10.33-8.03 9.636-16.553 4.104-21.918-5.532-5.364-11.135-4.03-16.856-1.998"/><path stroke="#000" stroke-width=".5" d="M221.905 20.954s-14.74 2.399-15.533 17.513c-.79 15.114 17.956 14.433 28.285 6.403 10.33-8.03 9.636-16.553 4.104-21.918-5.532-5.364-11.135-4.03-16.856-1.998z"/></g><g fill="#FFF" fill-rule="nonzero"><path d="M290.218 105.52a3.36 3.36 0 106.72 0 3.36 3.36 0 00-6.72 0"/></g></g><g><g transform="matrix(-1 0 0 1 470.817 185.125)"><mask id="z" fill="#fff"><use xlink:href="#y"/></mask><path fill="#E93737" fill-rule="nonzero" d="M8.296 87.498s-6.043-11.112-2.443-24.55S-3.275 37.235.968 26.769C5.21 16.303 13.052.798 13.052.798S32.851-3.595 40.05 8.292c7.2 11.887 21.213 14.342 20.184 27.005-1.028 12.662-1.285 16.41 6.043 23 7.328 6.589-4.114 36.437 1.028 51.167 5.143 14.73-59.01-21.966-59.01-21.966" mask="url(#z)"/></g><path fill="#EC7070" fill-rule="nonzero" d="M457.764 185.923s-14.399 13.05-19.927 42.898c-5.528 29.847-11.005 36.154-9.038 60.329.81 1.563 33.722-16.527 33.722-16.527s5.528-8.657 4.885-17.185c-.643-8.528-4.247-16.714 1.476-27.997 5.724-11.283 3.281-17.872-11.118-41.518"/><path fill="#0A4343" fill-rule="nonzero" d="M407.497 263.966s-7.328.904-7.328 10.854v53.105l23.912.517s7.457-15.118 20.313-20.028c12.856-4.91-17.356-41.993-17.356-41.993s-15.427-4.91-19.541-2.455"/><path fill="#1BC0D7" fill-rule="nonzero" d="M488.105 261.899s6.042 4.005 4.37 12.533c-1.67 8.528-3.856 10.854 1.158 19.123 5.014 8.27 8.1 28.168-7.842 47.291 0 0-16.97 3.36-25.584-8.528-8.614-11.887-7.457-16.022-21.856-21.32-14.399-5.297-5.528-34.757-14.913-40.7-9.385-5.944-13.242-7.107-13.242-7.107l77.909-1.292z"/><g transform="matrix(-1 0 0 1 500 261.876)"><mask id="B" fill="#fff"><use xlink:href="#A"/></mask><path fill="#237978" fill-rule="nonzero" d="M11.895.022s-6.942 2.843-4.37 12.534c2.57 9.69-.13 9.303-6.3 26.359C-4.946 55.97 14.209 78.97 14.209 78.97s1.157-22.224 10.285-34.887C33.622 31.421 31.042 4.836 42.874.75L11.895.022z" mask="url(#B)"/></g><path fill="#FC7750" fill-rule="nonzero" d="M427.231 327.825l-31.262-.243c-3.412-.026-6.387 2.324-7.167 5.662l-12.687 54.253c-2.268 9.698 5.054 18.988 14.967 18.988h35.948c9.364 0 16.554-8.341 15.218-17.657l-7.843-54.71c-.515-3.59-3.563-6.265-7.174-6.293"/><path fill="#237978" fill-rule="nonzero" d="M399.654 291.746s16.07 27.393 4.371 41.347c-11.699 13.955-21.47 10.983-25.455 27.005-3.985 16.022-34.197 5.298-34.197 5.298s-2.957-15.634 3.085-25.971c6.043-10.337 13.37-9.174 13.5-24.033.128-14.86 8.099-24.163 8.099-24.163l30.597.517z"/><path fill="#1BC0D7" fill-rule="nonzero" d="M385.303 291.33s4.58 19.28-3.005 34.528c-7.585 15.246-30.211 20.673-37.925 39.538 0 0-5.657-14.86.643-24.292 6.3-9.432 12.727-11.24 13.884-23.645 1.157-12.404 10.157-26.23 10.157-26.23l16.246.102z"/><path fill="#FEA78D" fill-rule="nonzero" d="M422.892 327.78h5.447s5.331-.013 6.386 7.173c1.055 7.185 7.869 54.993 7.869 54.993s.771 6.848-2.828 10.595c-3.6 3.747-6.249 5.899-11.803 6.05 0 0 5.117-6.696 4.603-18.066-.514-11.37-6.042-49.23-6.042-49.23s-1.22-10.628-3.632-11.516"/></g><path stroke="#56ACF6" stroke-dasharray="6,15" stroke-linecap="round" stroke-width="4" d="M189.629 217.615l-44.881-38.813"/><path stroke="#56ACF6" stroke-dasharray="4,19" stroke-linecap="round" stroke-linejoin="round" stroke-width="4" d="M92.236 202.784c43.571-2.283 77.041-39.455 74.758-83.026-2.284-43.57-39.456-77.04-83.027-74.757-43.57 2.283-77.04 39.455-74.757 83.026 2.284 43.57 39.456 77.04 83.026 74.757z"/><path stroke="#56ACF6" stroke-dasharray="4,19" stroke-linecap="round" stroke-linejoin="round" stroke-width="4" d="M91.137 181.813c31.989-1.676 56.562-28.967 54.885-60.956-1.676-31.989-28.967-56.561-60.956-54.885-31.988 1.677-56.561 28.967-54.885 60.956 1.677 31.989 28.968 56.562 60.956 54.885z"/><g transform="rotate(8 -146.461 706.981)"><rect width="85" height="50" x=".154" y=".247" fill="#A1DAF6" rx="4"/><rect width="85" height="24" x=".212" y="26.4" fill="#0075FF" rx="3"/><rect width="19" height="14" x="5.704" y="17.532" fill="#F9C818" rx="2"/><g fill="#A1DAF6" transform="translate(5.61 39.447)"><rect width="12.248" height="3" rx="1.5"/><rect width="12.248" height="3" x="20.414" rx="1.5"/><rect width="12.248" height="3" x="41.338" rx="1.5"/><rect width="12.248" height="3" x="61.752" rx="1.5"/></g></g><g transform="rotate(155 23.658 108.443)"><path fill="#A1DAF6" d="M82.932 4.04v29a3 3 0 01-3 3h-46.36a3 3 0 01-2.26-1.028l-12.657-14.5a3 3 0 010-3.946l12.657-14.5a3 3 0 012.26-1.027h46.36a3 3 0 013 3z"/><circle cx="33.591" cy="18.091" r="4.5" fill="#FFF" stroke="#56ACF6" stroke-width="2" transform="rotate(90 33.59 18.091)"/><text fill="#56ACF6" font-family="Helvetica" font-size="22" letter-spacing="2.347" transform="rotate(-180 56.396 17.692)"><tspan x="47.037" y="21.192">€</tspan></text><path stroke="#56ACF6" stroke-linecap="round" stroke-width="2" d="M30.467 18.465c-20-7.147-30-7.391-30-.734 0 6.658 10 6.903 30 .734"/></g><g fill-rule="nonzero"><path fill="#56ACF6" d="M87.185 88.58c5.917-.937 11.504 3.297 12.48 9.457l3.82 24.113c.975 6.16-3.03 11.914-8.947 12.851l-13.143 2.082c-5.917.937-11.504-3.297-12.48-9.458l-3.82-24.112c-.975-6.16 3.03-11.914 8.947-12.852l13.143-2.081zm.674 4.24l-13.148 2.082c-3.64.577-6.117 4.085-5.578 7.868l.017.115 3.818 24.106c.6 3.789 4.01 6.404 7.646 5.89l.11-.016 13.148-2.082c3.64-.577 6.117-4.086 5.578-7.869l-.017-.114-3.818-24.107c-.6-3.788-4.01-6.403-7.645-5.89l-.11.017z"/><path fill="#A1DAF6" d="M61.393 115.25l46.224-7.32 9.138 41.075-51.36 8.135z"/><g fill="#56ACF6" transform="rotate(-9 811.872 -434.248)"><ellipse cx="7.467" cy="6.865" rx="7.467" ry="6.865"/><path d="M5.003 8.86H9.93l2.053 16.068H2.95z"/></g></g></g></g></svg>