<svg xmlns="http://www.w3.org/2000/svg" xmlns:xlink="http://www.w3.org/1999/xlink" viewBox="0 0 501 340"><defs/><defs><linearGradient id="a" x1="50%" x2="50%" y1="-11.397%" y2="100%"><stop offset="0%" stop-color="#CA9384"/><stop offset="100%" stop-color="#9A5A4D"/></linearGradient><linearGradient id="b" x1="50%" x2="50%" y1="-23.532%" y2="100%"><stop offset="0%" stop-color="#37357D"/><stop offset="100%" stop-color="#191847"/></linearGradient><linearGradient id="c" x1="48.969%" x2="50%" y1="27.753%" y2="100%"><stop offset="0%" stop-color="#9A5A4D"/><stop offset="100%" stop-color="#CA9384"/></linearGradient><linearGradient id="d" x1="45.52%" x2="50%" y1="31.259%" y2="92.121%"><stop offset="0%" stop-color="#9A5A4D"/><stop offset="100%" stop-color="#CA9384"/></linearGradient><linearGradient id="e" x1="65.889%" x2="50%" y1="45.129%" y2="64.147%"><stop offset="0%" stop-color="#9A5A4D"/><stop offset="100%" stop-color="#CA9384"/></linearGradient><linearGradient id="f" x1="48.106%" x2="50%" y1="41.684%" y2="100%"><stop offset="0%" stop-color="#CA9384"/><stop offset="100%" stop-color="#9A5A4D"/></linearGradient><linearGradient id="g" x1="50%" x2="45.282%" y1="-17.397%" y2="64.336%"><stop offset="0%" stop-color="#F7A9A9"/><stop offset="100%" stop-color="#EC7070"/></linearGradient><linearGradient id="h" x1="50%" x2="47.657%" y1="-17.397%" y2="64.336%"><stop offset="0%" stop-color="#F7A9A9"/><stop offset="100%" stop-color="#EC7070"/></linearGradient><linearGradient id="i" x1="50%" x2="86.345%" y1="36.218%" y2="36.218%"><stop offset="0%" stop-color="#CE7E6E"/><stop offset="100%" stop-color="#E2AB9D"/></linearGradient><linearGradient id="j" x1="5.374%" x2="94.626%" y1="63.782%" y2="36.218%"><stop offset="0%" stop-color="#212358"/><stop offset="100%" stop-color="#2F3676"/></linearGradient><linearGradient id="k" x1="50%" x2="50%" y1="0%" y2="76.036%"><stop offset="0%" stop-color="#E7B4A6"/><stop offset="100%" stop-color="#CB7D6D"/></linearGradient><linearGradient id="l" x1="50%" x2="52.146%" y1="0%" y2="41.27%"><stop offset="0%" stop-color="#BEC3F0"/><stop offset="100%" stop-color="#8991DC"/></linearGradient><linearGradient id="m" x1="49.043%" x2="52.049%" y1="9.931%" y2="100%"><stop offset="0%" stop-color="#434C96"/><stop offset="100%" stop-color="#0E1048"/></linearGradient><linearGradient id="n" x1="50%" x2="50%" y1="100%" y2="17.284%"><stop offset="0%" stop-color="#CB7D6D"/><stop offset="100%" stop-color="#E2AB9D"/></linearGradient><linearGradient id="o" x1="-6.336%" x2="131.861%" y1="51.149%" y2="41.983%"><stop offset="0%" stop-color="#444C97"/><stop offset="100%" stop-color="#212257"/></linearGradient><path id="p" d="M.21.568h145v233H.21z"/></defs><g fill="none" fill-rule="evenodd"><ellipse cx="255.5" cy="275" fill="#EAF5FE" fill-rule="nonzero" rx="207.5" ry="6"/><path fill="#EECCDC" d="M247.665 243.678c37.117-38.274 57.768-86.309 13.716-130.795-44.053-44.486-62.09-39.287-69.64-71.792C177.836-18.792 17.008.213 50.353 127.228c33.346 127.015 160.197 154.724 197.313 116.45z" opacity=".704"/><g transform="translate(210.79 21.432)"><path fill="#6A9ADA" d="M7.21.568h89.625l2.375 252h-92z"/><circle cx="22.21" cy="128.568" r="7" fill="#FFF"/><path fill="#275799" d="M.21.529l7 .039v252h-7z"/></g><path fill="#A8C8F2" d="M307 22h157v246a6 6 0 01-6 6H313a6 6 0 01-6-6V22z"/><path fill="#275799" d="M307 22h157V6a6 6 0 00-6-6H313a6 6 0 00-6 6v16z"/><g fill="#FFF" transform="translate(316.79 5.432)"><circle cx="5.71" cy="6.068" r="5.5"/><circle cx="21.71" cy="6.068" r="5.5"/><circle cx="36.71" cy="6.068" r="5.5"/></g><path fill="url(#a)" d="M23.363 5.514c3.55 6.52 3.128 23.06-1.46 24.224-1.829.465-5.726-.673-9.692-3.03l2.49 17.36H0L5.06 20.82C2.238 17.555.328 13.554.647 9.07c.92-12.918 19.167-10.076 22.716-3.556z" transform="rotate(-15 202.833 -412.08)"/><path fill="url(#b)" d="M48.827 14.155c-.145-.845-.501-1.784-.788-2.583-.37-1.031-.93-1.96-1.547-2.836A21.557 21.557 0 0042.4 4.36c-2.808-2.257-6.383-3.56-9.898-3.137-1.775.214-3.498.881-4.965 1.992-1.325 1.003-2.6 2.48-4.315 2.586-1.867.116-3.578-1.508-5.075-2.51-1.688-1.132-3.484-1.955-5.457-2.276-3.305-.536-6.41.565-8.688 3.237C1.58 7.097-.183 11.267 1.41 15.036c.296.7.677 1.29 1.223 1.78.501.449 1.266.926 1.47 1.643.215.763-.43 1.746-.68 2.434-.357.985-.651 2.02-.547 3.09.172 1.76 1.294 3.439 2.478 4.595 1.205 1.177 2.689 1.851 4.273 2.162 1.058.208 2.14.322 3.214.245.534-.04 1.005-.185 1.522-.301.503-.113.784.018 1.21.29 1.983 1.263 4.114 1.751 6.403 1.564 1.932-.159 4.158-.62 5.734-1.925 1.75-1.448 1.715-3.446 1.303-5.58.436.213 1.643.345.922-.504-.286-.337-.825-.474-1.192-.672-.427-.23-.86-.528-1.192-.904-1.338-1.517.014-4.605 1.696-5.114 2.5-.756 3.059 2.728 4.843 3.629 1.026.518 2.099-.19 2.868-.913 1.03-.969 1.73-2.252 2.337-3.558.499-1.075.963-2.166 1.472-3.236.237-.5 1.06-1.912.646-2.477 1.79-.352 3.785.381 5.326 1.342.638.398 1.123.836 1.463 1.538.073.15.232.597.43.615.371.035.233-.412.196-.624" transform="rotate(-15 193.171 -317.786)"/><path fill="#986C98" d="M108.743 189.1c14.714 4.042 27.408 6.063 38.083 6.063 10.676 0 20.591-3.113 29.747-9.338-14.398-4.15-26.256-6.225-35.573-6.225s-20.07 3.167-32.257 9.5z"/><path fill="url(#c)" d="M111.564 73.99a3.386 3.386 0 01-.357-.684C109.24 68.196 77.738 13.077 74.6 3h35.467c2.386 7.662 13.126 55.744 14.637 65.337 4.769 15.132 14.587 64.14 15.84 67.535 1.32 3.571-6.1 7.292-8.077 2.901-3.146-6.986-10.641-26.318-13.979-38.122-3.128-11.065-5.676-21.021-6.924-26.66z" transform="translate(48 127)"/><path fill="#000" fill-opacity=".1" d="M159.564 200.99a3.386 3.386 0 01-.357-.684c-1.967-5.11-33.469-60.229-36.607-70.306h35.467c2.386 7.662 13.126 55.744 14.637 65.337 4.769 15.132 14.587 64.14 15.84 67.535 1.32 3.571-6.1 7.292-8.077 2.901-3.146-6.986-10.641-26.318-13.979-38.122-3.128-11.065-5.676-21.021-6.924-26.66z"/><path fill="url(#d)" d="M82.547 80.72C68.145 84.296 15.465 90.76 11.85 91.774c-3.72 1.043-6.98-6.487-2.383-8.118 7.314-2.595 27.468-8.592 39.687-11.04 9.828-1.968 18.797-3.574 24.818-4.515C73.462 51.486 71.13 11.612 72.66 3h31.381c-1.466 8.258-13.855 68.516-16.158 74.548-.73 2.153-2.911 3.105-5.335 3.172z" transform="translate(48 127)"/><path fill="#191847" d="M56.906 208.187c-1.411-.224-2.48-.273-3.204-.145-1.07.189-2.6.646-4.588 1.37l6.007 34.068c3.03.378 4.493-.406 4.386-2.354-.107-1.948-.18-3.569-.217-4.863l4.04-16.64a1.043 1.043 0 00-.782-1.262l-2.178-.494c-1.121-1.623-1.779-2.986-1.973-4.09-.132-.75-.058-1.781.222-3.095a2.086 2.086 0 00-1.713-2.495zM177.885 266.113c-.465 1.351-.698 2.395-.698 3.13 0 1.087.184 2.673.552 4.757h34.594c.898-2.92.38-4.496-1.557-4.728a194.847 194.847 0 01-4.827-.63l-15.685-6.87a1.043 1.043 0 00-1.38.552l-.864 2.06c-1.793.82-3.25 1.232-4.37 1.232-.762 0-1.765-.252-3.01-.757a2.086 2.086 0 00-2.755 1.254z"/><path fill="#DDB0C8" d="M120.76 130c13.829-3.887 26.913-3.887 39.253 0 4.294 19.243 14.726 26.88 16.56 56.382-20.853 10.179-46.613-7.259-68.08 2.667-6.133-13.884 2.454-47.321 12.267-59.049z"/><g><path fill="url(#e)" d="M153.705 53.705l17.701 8.97c6.563 2.13 12.007 4.64 16.333 7.53 1.005 1.01 2.178 3.01-2.18 2.449-4.357-.563-8.967-.96-9.648.492-.682 1.452 1.872 3.363.546 5.3-.884 1.292-4.551-2.253-11.002-10.634l-23.776-11.28 12.026-2.827z" transform="scale(1 -1) rotate(-20 -301.258 -145.089)"/><path fill="url(#f)" d="M39.069 67.616c-11.594 25.636-18.32 39.633-20.18 41.99-1.363 1.729-9.66 6.097-15.265 8.41-2.25.928-1.803 2.822-1.159 3.437 5.24 5 10.148 1.446 15.885.128 6.285-1.445 4.205 5.96 9.17 4.896-.729-3.413-2.75-9.906-.4-13.39 1.043-1.547 8.989-15.844 23.836-42.89l-11.887-2.581z" transform="rotate(-10 387.787 -157.999)"/><path fill="url(#g)" d="M96.769 8l8.73 3.219c10.063 20.785 22.605 36.267 42.426 51.989 2.88-.263 6.026.19 9.408 1.33a3.056 3.056 0 01.024 5.784c.624.448 1.255.899 1.893 1.35l-5.47 11.157c-23.016-11.466-44.65-20.112-54.507-39.042-2.206-4.236-2.443-15.24-2.45-24.432v-1.188c.005-4.116.042-7.778-.054-10.167z" transform="rotate(-24 255.283 -29.839)"/><path fill="#191847" d="M113.071 147.018c21.487-.652 38.143-2.992 49.967-7.023 1.465-.499.487-6.974-.46-8.647-14.747-26.05-24.736-45.232-27.428-64.387-1.848 1.321-5.317 1.968-10.407 1.94-10.63 21.623-13.607 45.138-11.672 78.117z"/><path fill="url(#h)" d="M88.877 16c-2.275 30.073 29.16 95.729 18.245 151.801-20.175 4.502-48.978-9.505-77.014 1.686.64-13.874 8.777-29.238 16.847-44.526l1.368-2.596c4.59-8.722 9.02-17.39 11.88-25.714a3.048 3.048 0 01-.945-2.58l.026-.177v-.001l.353-2.002a3.06 3.06 0 012.649-2.507c.23-1.019.426-2.031.589-3.036.739-4.57.4-9.093-.053-13.57L62.69 71.5c-.355-3.402-.722-6.779-.677-10.13-10.93 9.315-20.734 25.404-29.414 48.264l-12.837-3.774c.49-1.819.997-3.615 1.522-5.39-1.48-.837-3.213-4.693-1.967-5.339a15 15 0 014.085-1.41C35.172 58.296 54.422 32.39 81.148 16z" transform="rotate(-8 472.283 -229.458)"/><path fill="#000" fill-opacity=".1" d="M121.99 68.329l-1.973 11.158 8.117 7.016-5.437 7.174 18.966 24.009-22.366-23.478 5.316-7.21-7.2-6.197z"/><path fill="#000" fill-opacity=".2" d="M146.227 153.393a2.718 2.718 0 11-2.315 3.068 2.718 2.718 0 012.315-3.068zm-2.847-15.374a2.718 2.718 0 11-2.315 3.069 2.718 2.718 0 012.315-3.069zm-5.54-14.995a2.718 2.718 0 11-2.314 3.068 2.718 2.718 0 012.314-3.068z"/></g><g><path fill="url(#i)" d="M124.79 86.83l13.28-24.641c.285-6.068 1.31-11.284 3.077-15.648.771-1.096 2.545-2.577 3.263 1.243.719 3.821 1.689 7.814 3.439 8.035 1.75.221 3.01-2.405 5.472-1.759 1.64.431-1.022 4.398-7.988 11.901l-4.817 22.857-15.726-1.988z" transform="rotate(-93 212.013 20.323)"/><path fill="url(#j)" d="M81.095 102.906l-2.347-4.279c15.416-15.473 27.087-36.136 35.013-61.99 2.961-3.81 22.179 8.328 19.78 12.322-14.234 28.48-29.661 45.285-52.446 53.947z" transform="scale(-1 1) rotate(63 -113.766 -246.708)"/><path fill="url(#k)" d="M21.646 5.578c3.288 6.596 2.898 23.328-1.352 24.507-1.695.47-5.306-.681-8.981-3.065L13.62 44.58H0l4.689-23.518C2.074 17.76.304 13.712.599 9.176c.853-13.07 17.758-10.194 21.047-3.598z" transform="scale(-1 1) rotate(3 -955.727 -6363.85)"/><path fill="#2C2C2C" d="M316.003 43.719c.3-.217.93-.673 1.252-.843.077-.041.602-.49.617-.485.422.128 1.65.62 1.779 1.095.017.036.035.069.052.098.187.324.36.656.528.993.366.74.69 1.517 1 2.288a70.417 70.417 0 011.642 4.589c.51 1.574.957 3.17 1.446 4.752.704 2.276 1.567 4.487 2.267 6.762.447 1.453.73 2.932.713 4.452v.055l-.001.023a11.3 11.3 0 01-.035.704c-.017.202-.034.404-.053.607-.588-1.107-1.057-2.336-1.548-3.5a14.812 14.812 0 01-.139-.344c-.15-.234-.304-.465-.459-.696-.977-1.454-1.957-2.902-2.898-4.385-1.693-2.667-3.374-5.393-5.343-7.82-.581-.717-1.175-1.422-1.75-2.145a36.36 36.36 0 01-.957-1.258c-.222-.306-1.172-1.362-.883-2.041.147-.348 1.989-2.34 2.77-2.901z"/><path fill="url(#l)" d="M27.595 2.34c.303.11.156-.57-.138-.809C26.095.423 20.89.021 16.362 1.033c-3.034.678-6.563 2.365-8.987 4.534-2.184 1.955-3.687 5.09-4.46 8.117-.812 3.18-.935 6.495-.483 9.756.1.716.313 1.398.432 2.1.134.789.203 1.549.442 2.317.146.47.395.931.52 1.404.142.54.055 1.039-.049 1.588-.169.894-.379 1.787-.677 2.641-.448 1.283-.992 2.485-1.333 3.816-.454 1.771-2.351 7.536-.965 9.107h26.4c-.666-1.951-2.661-4.248-3.065-6.336-.238-1.231-.351-3.918-.376-4.016-.595-4.413-1.756-6.52-2.484-7.285-.727-.765-1.696-1-1.746-1.664-.207-2.744.807-5.373 1.55-7.933.887-3.053 1.536-6.18 2.45-9.222.404-1.347 2.489-8.187 4.064-7.617z" transform="scale(-1 1) rotate(3 -919.942 -6560.188)"/><path fill="#000" fill-opacity=".2" d="M337.98 68.783c-5.35 2.12-4.544 5.878-11.2 10.074l.592.344c5.865-2.982 6.969-8.775 11.034-9.917l-.427-.501zm-5.485-19.641c-.482 6.91-.522 10.845-4.512 18.585l.475.13c4.168-6.777 4.603-12.152 4.474-18.7l-.437-.015zm7.87 4.523c-1.6 4.935-2.295 7.836-7.263 12.022l.415.28c4.972-3.402 6.272-7.216 7.248-12.12l-.4-.182zm-13.797-8.06c1.172 3.341 1.481 5.142 1.51 9.792l.488-.026c.682-4.425-.345-8.503-1.385-9.799l-.613.032z"/><path fill="#000" d="M304.236 266.892c.464 1.209.695 2.143.695 2.804 0 .983-.186 2.418-.559 4.304h-34.97c-.91-2.642-.385-4.068 1.573-4.279 1.958-.21 3.585-.4 4.88-.57l15.927-6.244c.511-.2 1.091.03 1.325.528l.873 1.863c1.812.743 3.285 1.115 4.418 1.115.795 0 1.85-.243 3.167-.73a2.086 2.086 0 012.671 1.21z"/><path fill="#CF8575" d="M306.122 255.826l-4.345 9.97c-1.424.623-2.87.934-4.336.934-1.466 0-3.046-.311-4.74-.934v-9.97h13.42zM334.685 134.665l32.166 73.534 31.615 62.166h-7.459l-81.605-135.7z"/><path fill="#000" d="M290.45 258.634c1.051 2.584 6.07 2.43 15.057-.46 7.14-19.319 37.364-98.748 34.854-132l-32.051 7.2c-11.55 27.04-11.305 105.78-17.86 125.26zM399.527 266.839c.493 1.234.739 2.186.739 2.857 0 .983-.192 2.418-.577 4.304H363.59c-.938-2.642-.396-4.068 1.625-4.279 2.02-.21 3.7-.4 5.037-.57l16.487-6.262a1.043 1.043 0 011.309.521l.913 1.888c1.871.743 3.391 1.115 4.561 1.115.838 0 1.957-.254 3.357-.762a2.086 2.086 0 012.648 1.188z"/><path fill="#000" d="M394.806 258.804l-16.605 3.08c-12.838-18.67-66.569-95.218-72.46-130.854h36.966c19.673 25.761 39.86 108.796 52.099 127.774z"/><path fill="#DDE3E9" d="M347.935 140c-26.67 2.577-41.004 1.244-43.004-4-3-7.865 15.28-35.988 17.764-62.174L337.343 73c9.76 17.822 10.996 38.895 10.592 67z"/><path fill="url(#m)" d="M44.815 133.568c24.72 6.978 39.046 5.692 42.975-3.858 5.894-14.325-6.343-49.497-8.5-68.243l-3.12-10.942c-2.05-2.415-3.642-3.591-4.775-3.53l-8.105-.43c-8.584 19.726-19.113 55.747-18.475 87.003z" transform="matrix(-1 0 0 1 401.79 23.432)"/><g><path fill="url(#n)" d="M78.351 23.328c1.81-.74 10.032-.256 15.296.589 2.113.339 2.636-1.413 2.43-2.224-1.673-6.595-6.975-6.095-11.888-7.81-5.382-1.878-.459-6.871-4.676-8.418-1 3.12-2.426 9.364-5.772 11.048-2.231 1.122.91 8.327 4.61 6.815z" transform="matrix(-1 0 0 1 334.82 103.857)"/><path fill="url(#o)" d="M16.601 74.012c26.713 13.766 55.283 5.623 85.71-24.43 4.91-6.085-11.477-17.685-14.965-16.738C54.151 67.654 16.958 46.5 8.59 56.72c-5.578 6.813-2.908 12.578 8.011 17.293z" transform="scale(-1 1) rotate(45 -183.017 -346.874)"/></g><path fill="#FFF" fill-opacity=".2" d="M348 148l-14.388-12-.612 10.104z"/></g><g transform="translate(318.79 46.432)"><mask id="q" fill="#fff"><use xlink:href="#p"/></mask><g mask="url(#q)"><path fill="#ECAFA3" d="M93.275 20.194c-3.824 7.124-3.37 25.197 1.573 26.47 1.971.508 6.17-.736 10.444-3.31L102.61 62.32h15.84l-5.453-25.402c3.041-3.568 5.1-7.94 4.756-12.84-.992-14.115-20.653-11.01-24.478-3.885z"/><path fill="#191847" d="M101.863 13.259c-4.445.38-8.413 1.735-9.538 2.54 0 4.205.815 5.453 7.78 5.343 1.71.903 3.026 2.458 4.396 4.497-.606 8.44-2.21 12.662-4.812 12.662-3.902 0-7.213-2.476-8.926-2.476-1.248 0-.97 1.561-.142 2.719.683.954 4.007 1.875 4.007 3.355s-2.626.336-2.626 1.214c0 1.452-.462 4.183 2.06 4.183 2.553 0 9.871-.93 11.126-4.716.809-2.444 1.332-7.506 1.57-15.189a3.959 3.959 0 013.24 6.76 60.01 60.01 0 003.119 4.035c4.42-2.65 7.701-10.41 3.38-17.864-1.196-3.652-3.9-5.602-7.094-6.508-2.587-1.082-5.273-1.204-7.54-.555z"/><g transform="matrix(-1 0 0 1 185.21 117.07)"><path fill="#ECAFA3" d="M161.8 15.083c-.019 13.961-12.767 80.24-13.432 84.425-.666 4.185-7.796 5.554-8.211.325-.385-4.845-.962-16.652-1.134-28.318l-.018-1.32-.014-1.316a421.33 421.33 0 01-.018-3.26v-1.286c.011-5.758.16-11.097.524-15.078.359-3.918.737-7.706 1.118-11.255-6.7 12.028-16.888 29.03-30.564 51.006l-7.6-3.471c5.968-19.654 10.863-33.53 14.682-41.626a700.242 700.242 0 016.62-13.655l.492-.984c3.58-7.142 6.543-12.687 8.143-15.278 3.41-5.524 8.94-4.79 12.836-2.055 4.739-6.424 16.583-2.172 16.576 3.146z"/><path fill="#1F28CF" d="M102.994 74.62l26.088-61.766c6.25-10.047 23.772 2.045 21.641 7.873-4.839 13.23-29.447 56.063-30.889 60.004l-16.84-6.11z"/><path fill="#2B44FF" d="M162.742 18.47c0 17.507-7.96 60.095-7.966 63.95l-18.6-.627c3.252-35.78 4.623-53.79 4.114-54.033-1.146-.546-46.957 6.337-60.696 6.856-19.813.75-28.009-11.398-28.674-34.45h38.377c32.817 3.914 54.385 6.637 64.705 8.168 6.627.983 8.74 5.313 8.74 10.135z"/><path fill="#E4E4E4" d="M100.995 84.23c-.938 1.43-1.51 2.559-1.717 3.388-.288 1.155-.515 2.887-.683 5.197l36.12 9.006c1.712-2.868 1.587-4.677-.373-5.429a206.273 206.273 0 01-4.873-1.926l-14.648-11.45a1 1 0 00-1.42.194l-1.524 2.066c-2.09.406-3.72.463-4.89.171-.834-.208-1.873-.78-3.116-1.717a2 2 0 00-2.876.5zM138.887 90.693c-.565 1.614-.847 2.848-.847 3.703 0 1.19.198 2.925.595 5.207h37.225c.967-3.196.409-4.921-1.675-5.176a206.273 206.273 0 01-5.194-.69l-16.983-7.567a1 1 0 00-1.331.532l-.98 2.373c-1.929.9-3.497 1.35-4.703 1.35-.859 0-2.005-.305-3.438-.913a2 2 0 00-2.67 1.181z"/><rect width="34.98" height="4.617" x="138.7" y="99.603" fill="#2F3676" rx="2.309"/><path fill="#2F3676" d="M52.34 3.958h63.82c5.523 0 10 4.477 10 10v28.918H46.34a4 4 0 01-4-4V13.958c0-5.523 4.477-10 10-10z"/><path fill="#2F3676" d="M119.56 3.958a8.306 8.306 0 018.196 6.959L142 97.624h-7.053"/><ellipse cx="138.7" cy="98.944" fill="#191847" rx="11.88" ry="11.873"/><g fill="#191847"><path d="M50.92 9.235c27.703 0 50.16 22.444 50.16 50.131s-22.457 50.132-50.16 50.132C23.217 109.498.76 87.053.76 59.366.76 31.68 23.217 9.235 50.92 9.235zm0 9.234C28.32 18.47 10 36.78 10 59.366s18.32 40.897 40.92 40.897 40.92-18.31 40.92-40.897c0-22.586-18.32-40.897-40.92-40.897z"/><path d="M48.28 15.83h5.28v87.07h-5.28z"/><path d="M81.27 28.13l.904.904a1.998 1.998 0 010 2.828L23.4 90.602c-.782.78-2.048.78-2.83 0l-.904-.904a1.998 1.998 0 010-2.827L78.44 28.13a2.003 2.003 0 012.83 0z"/><path d="M94.48 58.728v1.277a2 2 0 01-2 2H9.36a2 2 0 01-2-2v-1.277a2 2 0 012-2h83.12a2 2 0 012 2z"/><path d="M82.174 89.698l-.905.904c-.781.78-2.047.78-2.829 0l-58.774-58.74a1.998 1.998 0 010-2.828l.905-.904a2.003 2.003 0 012.829 0l58.774 58.74a1.998 1.998 0 010 2.828z"/></g></g><g><path fill="#ECAFA3" d="M148.607 109.168l-13.793.054c8.517 27.476 13.114 42.054 13.793 43.735 1.527 3.783-1.705 9.544-3.087 12.64 2.053.918 3.07-.134 4.108-1.299l.24-.27c1.168-1.306 2.463-2.576 5.352-1.233.777.361 1.527.767 2.26 1.183l.486.278.241.14.48.278c3.667 2.13 7.055 4.036 11.646 1.205.736-.454 1.543-2.164-.406-3.5-4.856-3.327-11.854-9.152-12.8-11.069-1.289-2.614-4.13-16.662-8.52-42.142zm-80.833-.533l-21.052 15.45c-5.71 1.54-10.48 3.456-14.312 5.748-.905.824-1.999 2.493 1.754 2.205 3.754-.289 7.714-.423 8.232.856.518 1.28-1.753 2.81-.707 4.535.698 1.151 3.995-1.734 9.891-8.656l20.848-8.64-4.654-11.498z"/><path fill="#E87613" d="M109.411 51.327l-5.707-.979C82.53 68.63 73.832 103.752 47.877 122.357l6.247 7.74c45.028-5.573 56.188-48.412 55.287-78.77z"/><path fill="#DDE3E9" d="M134.29 123.007H83.792c-2.307 0-1.872-3.33-1.539-5.01 3.85-19.394 18.878-40.299 18.878-67.905l14.566-2.282c12.047 19.365 16.214 43.208 18.593 75.197z"/><path fill="#FF9B21" d="M116.793 47.81c-.494 0-.947.03-1.358.093l-4.556.26c-9.997 40.612-12.753 66.66-8.269 78.142 4.143 10.61 16.666 14.42 37.568 11.43 2.219 5.106 4.346 9.43 6.382 12.976h10.83c1.02-32.937-6.816-60.893-23.506-83.867 2.115-.606 3.79-2.024 5.026-4.251 5.324-9.601 3.401-14.887-2.288-16.625-5.69-1.737-10.764 1.842-19.829 1.842z"/></g></g></g></g></svg>