<svg xmlns="http://www.w3.org/2000/svg" xmlns:xlink="http://www.w3.org/1999/xlink" viewBox="0 0 500 387"><defs><path id="e" d="M0 .004h27.651V17.25H0z"/></defs><defs><use xlink:href="#e"/><use id="g" xlink:href="#e"/><use id="i" xlink:href="#e"/><use id="k" xlink:href="#e"/><use id="m" xlink:href="#e"/><use id="o" xlink:href="#e"/><use id="q" xlink:href="#e"/><use id="s" xlink:href="#e"/><use id="u" xlink:href="#e"/><use id="w" xlink:href="#e"/><use id="y" xlink:href="#e"/><path id="a" d="M0 .037h50.916v44.42H0z"/><path id="c" d="M0 0h35.06v37.993H0z"/><path id="A" d="M.003.003H4.89V1.4H.003z"/><path id="C" d="M0 0h18.236v14.872H0z"/></defs><g fill="none" fill-rule="evenodd"><path d="M0 0h500v316H0z"/><path stroke="#56ACF6" stroke-dasharray="30" stroke-linecap="round" stroke-width="5" d="M238.5 284c62.684 0 113.5-38.951 113.5-87s-50.816-87-113.5-87S125 148.951 125 197s50.816 87 113.5 87z"/><path stroke="#56ACF6" stroke-dasharray="30" stroke-linecap="round" stroke-width="5" d="M238.5 293c42.25 0 76.5-32.012 76.5-71.5S280.75 150 238.5 150 162 182.012 162 221.5s34.25 71.5 76.5 71.5z"/><g fill-rule="nonzero"><path fill="#DDB0C8" d="M414.669 155.141c15.266 0 27.641 12.42 27.641 27.74v59.963c0 15.32-12.375 27.739-27.641 27.739h-33.912c-15.266 0-27.641-12.42-27.641-27.739V182.88c0-15.32 12.375-27.739 27.641-27.739h33.912zm.006 10.545h-33.924c-9.393 0-17.026 7.56-17.178 16.944l-.002.285v59.949c0 9.42 7.539 17.075 16.896 17.227l.284.002h33.924c9.394 0 17.026-7.56 17.178-16.945l.002-.284v-59.949c0-9.42-7.539-17.075-16.896-17.227l-.284-.002z"/><path fill="#EECCDC" d="M338.95 213.266h115.508l6.418 101.717H332.533z"/><g fill="#DDB0C8" transform="translate(379.35 232.64)"><ellipse cx="17.68" cy="17.402" rx="17.68" ry="17.402"/><path d="M11.846 22.459h11.668l4.861 40.73H6.984z"/></g></g><g fill-rule="nonzero"><path fill="#0A4343" d="M354.47 270.304H111.186a6.26 6.26 0 01-6.262-6.26v-59.15a6.26 6.26 0 016.262-6.26h243.282a6.26 6.26 0 016.261 6.26v59.15a6.26 6.26 0 01-6.26 6.26"/><path fill="#237978" d="M120.503 278.885h220.178V255.45H120.503z"/><path fill="#0A4343" d="M113.075 295.901l-5.553 18.387 4.399-.289 13.434-18.137zM352.24 296.589l5.554 18.386-4.4-.288-13.434-18.137z"/><path fill="#1BC0D7" d="M126.633 227.907s.721-.793 8.943.866c8.221 1.658 20.542-2.55 22.315-1.275 1.772 1.275 1.484 25.79 6.172 32.063 4.687 6.273-11.756-2.884-26.9 3.533-15.145 6.417-2.885-18.819-2.885-18.819l-7.645-16.368z"/><path fill="#204EB2" d="M117.862 220.708s-2.491 19.435 12.603 37.794c15.094 18.36 9.072-14.252.325-26.72-8.747-12.467-12.78-15.964-12.928-11.074"/><path fill="#1BC0D7" d="M343.927 248.673c-.146-.407-.721-6.273-.36-13.627.36-7.355-10.558 1.119-25.675-1.587-8.535-1.527-21.675-4.485-19.328 2.452 2.451 7.244-3.678 19.9.65 20.55 4.326.648 27.188-3.534 37.212.937 10.025 4.47 9.592-2.884 7.5-8.725"/><path fill="#165C5D" d="M93.572 243.106l18.645 51.231a3.594 3.594 0 003.367 2.365l234.062.706a3.594 3.594 0 003.41-2.427l18.374-53.516c.78-2.27-.843-4.65-3.24-4.756l-17.381-.767a3.594 3.594 0 00-3.379 1.994l-15.064 30.376a3.594 3.594 0 01-3.212 1.997l-193.023.423a3.594 3.594 0 01-3.26-2.063l-13.6-28.895a3.594 3.594 0 00-3.36-2.062l-19.07.573c-2.447.074-4.106 2.52-3.27 4.82"/></g><path fill="#ECAFA3" fill-rule="nonzero" d="M154.353 210.658s-5.068 15.291-2.877 33.449c2.192 18.158 5.89 55.02 5.89 55.02h8.354s.685-34.951 1.918-46.829c1.233-11.877 1.78-20.342 1.78-20.342l2.055-8.6.685 11.33s14.244 54.61 15.34 65.396l7.943-.137s-4.52-64.849-5.341-69.764c-.822-4.914-6.848-18.02-6.848-18.02l-28.9-1.503z"/><path fill="#56ACF6" fill-rule="nonzero" d="M165.818 300.84h-8.387a.782.782 0 01-.783-.782v-.006c0-.431.35-.781.783-.781h8.387c.432 0 .783.35.783.78v.007c0 .432-.35.781-.783.781"/><path fill="#E4F9FF" fill-rule="nonzero" d="M166.634 301.273a.474.474 0 01-.476.476h-.143v4.737h-8.72v-4.737h-.137a.476.476 0 110-.95h9c.263 0 .476.212.476.474M153.013 314.815s-.154-2.437.597-2.706c.75-.269 13.46-.632 13.46-.632l-.023 2.532s-3.812.998-7.123 1.113c-3.31.115-6.815-.154-6.91-.307"/><path fill="#204EB2" fill-rule="nonzero" d="M167.07 311.477l.003.218s-2.5.532-4.637.75c-2.136.218-8.424.484-8.837-.048-.341-.44 2.301-4.052 3.23-5.293a.59.59 0 01.25-1.126h9.481a.592.592 0 01.282 1.11c.154 1.115.212 3.633.228 4.389"/><path fill="#56ACF6" fill-rule="nonzero" d="M154.371 310.696s-1.427 1.526-.712 1.773c.714.246 6.32.465 8.38.137l2.061-.329s.16-.904-1.08-1.816c-.886-.652-1.462-1.55-2.287-1.714-.824-.165-2.414-.253-3.129.103-.714.357-1.95 1.083-3.233 1.846"/><path fill="#FFF" fill-rule="nonzero" d="M164.473 309.174s.107 2.039.888 1.985c.78-.053 1.11-3.165 1.514-4.077 0 0-.39-.105-1.048 1.701-.333.914-.25 1.893-1.354.391"/><path stroke="#FFF" stroke-linecap="round" stroke-width=".608" d="M156.317 308.753s2.525-1.299 5.539.162M157.088 307.01s2.525-1.298 5.539.163M156.847 307.527s2.57-1.209 5.53.358M156.543 308.564s2.344-1.6 5.516-.52"/><path fill="#56ACF6" fill-rule="nonzero" d="M187.915 301.556l8.376-.425a.782.782 0 00.742-.82v-.007a.782.782 0 00-.822-.74l-8.376.426a.782.782 0 00-.742.82v.006c.022.43.39.762.822.74"/><path fill="#E4F9FF" fill-rule="nonzero" d="M187.122 302.031a.473.473 0 00.5.45l.142-.006.242 4.73 8.708-.442-.242-4.73.138-.008a.476.476 0 10-.048-.949l-8.989.457a.475.475 0 00-.451.498M201.416 314.864s.03-2.442-.734-2.672c-.763-.23-13.474.05-13.474.05l.152 2.529s3.857.803 7.17.75c3.313-.053 6.798-.499 6.886-.657"/><path fill="#204EB2" fill-rule="nonzero" d="M187.208 312.243l.007.218s2.525.405 4.67.515c2.145.109 8.438.055 8.823-.497.318-.457-2.505-3.93-3.496-5.123a.59.59 0 00-.308-1.112l-9.468.481a.591.591 0 00-.225 1.124c-.097 1.121-.027 3.638-.003 4.394"/><path fill="#56ACF6" fill-rule="nonzero" d="M199.85 310.82s1.503 1.451.802 1.734c-.7.282-6.288.785-8.363.562l-2.075-.224s-.205-.895.986-1.869c.852-.696 1.382-1.622 2.196-1.828.815-.206 2.4-.374 3.13-.055.732.32 2.003.983 3.324 1.68"/><path fill="#FFF" fill-rule="nonzero" d="M189.684 309.812s-.004 2.041-.786 2.027c-.782-.014-1.27-3.105-1.72-3.995 0 0 .383-.124 1.133 1.646.38.896.348 1.878 1.373.322"/><path stroke="#FFF" stroke-linecap="round" stroke-width=".608" d="M197.808 308.978s-2.588-1.17-5.524.443M196.948 307.277s-2.588-1.17-5.523.443M197.215 307.78s-2.628-1.077-5.504.638M197.573 308.8s-2.424-1.479-5.536-.24"/><path fill="#204EB2" fill-rule="nonzero" d="M154.192 203.41s-2.48 15.153-5.994 32.098c0 0-.258 1.157 2.642.771 2.9-.385 11.275.064 15.141.835 3.866.77 4.188.77 4.188-1.927s.516-9.184.516-9.184.258 11.69 1.546 11.368c1.289-.321 8.472-4.768 20.955-2.476 0 0 1.396-.327.985-1.8-.41-1.474-7.787-22.437-8.753-29.685h-31.226z"/><g><path fill="#ECAFA3" fill-rule="nonzero" d="M166.188 156.287s-.267 5.848-3.69 7.912c-3.104 1.872 3.474 12.74 10.55 12.091 3.873-.355 4.78-10.913 4.78-10.913s-3.127-.602-1.972-5.356l-9.668-3.734z"/><path fill="#ECAFA3" fill-rule="nonzero" d="M171.853 162.233c-4.587-.553-7.897-3.56-8.36-8.547-1.334.212-1.649-3.252-1.277-4.365.371-1.114 1.585-.462 1.585-.462.067-.176.124-.36.171-.553 2.004-8.193 7.616-7.868 7.616-7.868 10.313.535 7.897 11.03 7.308 13.815-.59 2.784-2.608 8.514-7.043 7.98z"/><path fill="#000" fill-rule="nonzero" d="M155.096 187.936l-2.604 24.29s18.537 3.322 34.574-1.868l.937-21.384-32.907-1.038z"/><g transform="translate(144.65 163.888)"><mask id="b" fill="#fff"><use xlink:href="#a"/></mask><path fill="#000" fill-rule="nonzero" d="M7.967 41.194S-.938 35.66.081 26.682C1.101 17.705 4.897 5.45 11.42 2.932 17.943.411 18.147.036 18.147.036s2.615 3.402 7.168 3.618c4.554.216 7.518-2.306 7.518-2.306s8.944 2.124 11.52 6.142c2.575 4.018 9.153 21.959 5.467 27.65-3.687 5.693-10.816 7.352-10.816 7.352S17.22 47.679 7.967 41.194" mask="url(#b)"/></g><path fill="#025B9C" fill-rule="nonzero" d="M165.412 188.566l-.066-5.764s-.197-1.225 1.709-1.297c1.905-.072 7.031-.144 7.031-.144s1.249-.288 1.314 1.513c.066 1.802.132 7.998.132 7.998l-7.886 2.234-2.957-.144.723-4.396z"/><path fill="#000" fill-rule="nonzero" d="M164.731 192.928l2.911.141 7.853-2.224c-.005-.452-.068-6.25-.13-7.97-.024-.627-.193-1.066-.503-1.303a1.003 1.003 0 00-.768-.176l-.007.001c-.052.001-5.147.073-7.03.144-.693.027-1.182.207-1.454.537a.987.987 0 00-.221.719l.066 5.772v.003l-.717 4.356zm2.92.214h-.007l-2.997-.146.729-4.432-.066-5.761a1.038 1.038 0 01.236-.77c.286-.347.793-.537 1.507-.564 1.863-.07 6.866-.141 7.029-.144.047-.01.46-.087.824.19.328.25.507.707.53 1.358.065 1.781.131 7.937.132 7.999v.027l-.026.008-7.892 2.235z"/><path fill="#56ACF6" fill-rule="nonzero" d="M165.344 183.018l-.004-.993s0-.792 1.084-.864c1.084-.072 7.517-.216 7.517-.216s.868-.073 1.23.432c.36.504.246 1.73.246 1.73s-.04-1.718-1.48-1.688l-7.045.145s-1.471-.147-1.548 1.454"/><path fill="#025B9C" fill-rule="nonzero" d="M173.973 181.383c.982 0 1.313.812 1.424 1.322.003-.4-.035-.998-.256-1.307-.346-.482-1.188-.418-1.197-.418-.066.002-6.447.145-7.518.217-.431.028-.75.181-.92.443a.782.782 0 00-.13.385l.002.527c.078-.284.217-.514.417-.685.462-.398 1.075-.341 1.1-.339l7.04-.145h.038m1.48 1.728l-.072-.003c0-.004-.013-.429-.198-.843-.246-.55-.665-.823-1.246-.81l-7.044.145c-.01 0-.613-.055-1.051.322-.283.243-.439.613-.462 1.098l-.072-.002-.004-.993c0-.008.012-.827 1.118-.9 1.072-.072 7.454-.215 7.519-.217.034-.002.89-.067 1.259.448.365.51.258 1.704.253 1.755"/><path fill="#ECAFA3" fill-rule="nonzero" d="M165.427 186.26s-1.042.667-1.377 1.075c-.335.409-.038.483-.782 1.262-.745.78-2.085 2.747.26 5.753 2.346 3.006 3.128 2.747 4.096 2.227s1.08-.89 2.904-1.076c1.825-.186 3.575-1.967 3.538-2.413l-.038-.445s1.676-.631 1.564-1.336c-.112-.705-.596-.631-.596-.631s.335-.334.075-.928c-.26-.594-1.49-.483-2.904-.297-1.415.186-5.064.928-5.288.78-.223-.15-.149-.372.708-.483.856-.111 4.319-.149 4.319-1.114 0-.965-1.043-1.15-3.053-1.113-2.01.037-2.383-.074-2.867.111l-.484.186-.075-1.559z"/><path fill="#995B5D" fill-rule="nonzero" d="M175.026 190.672s.107-.077-.69.226c-.29.11-.7.225-1.276.334-2.16.409-5.548 1.151-6.59 1.3-1.043.148-.186.37 2.197-.112s5.22-1.13 5.347-1.172c.217-.072.867-.288 1.012-.576M173.246 192.866s-1.762.616-2.63.832c-.92.23-1.614.54-1.8.244-.187-.297-.41-.371-.41-.371l-.298.334s.05.37-.112.408c-.29.07-.856.186-.856.186s.007.208 1.742-.153c.43-.09 1.228-.216 1.734-.36.466-.133 2.146-.564 2.37-.75.223-.185.26-.37.26-.37"/><path fill="#F9C818" fill-rule="nonzero" d="M167.773 192.68s-.027 1.495.396 1.471c.423-.024.572-.024.647-.135.074-.111-.112-.482-.112-.89 0-.409 0-.595-.335-.557-.335.037-.559.037-.596.111"/></g><g fill-rule="nonzero"><path fill="#CE4129" d="M170.377 157.148s-.178 1.136 1.395 1.564c1.573.428 2.318.325 2.386-.41 0 0-.143-.834-.513-.921-.37-.086-.79.062-.79.062s-.306-.545-.705-.549c-.4-.003-1.248.345-1.773.254"/><path fill="#000" d="M173.107 158.16c-1.146-.32-2.514-.722-2.921-1.001-.297-.205-.42-.181-.422-.18 0 0 .154-.354.586-.058.42.289 2.238.794 2.835.96 1.045.291 1.148.25 1.28.198l.107.267c-.127.051-.244.077-.496.041-.206-.029-.503-.098-.969-.228zM172.224 162.496c-1.002 0-2.037-.29-2.78-.56a12.467 12.467 0 01-1.648-.732l.107-.188c.026.015 2.708 1.496 4.85 1.233l.027.215a4.58 4.58 0 01-.556.032M174.933 150.2l.275.088-.027.086-.072.24a19.86 19.86 0 00-.218.808c-.077.313-.143.616-.194.902l-.015.085c-.126.728-.144 1.284-.032 1.583l.007.017c.642 1.582-.23 2.385-2.059 1.823l-.055-.018.088-.274c1.647.525 2.308-.067 1.758-1.423-.151-.374-.128-1.007.023-1.844.053-.292.12-.601.199-.92.062-.253.129-.5.196-.733l.025-.087.043-.146.035-.116.023-.071z"/><path fill="#C86A5D" d="M167.795 161.225l.141-.251.052.028.047.025c.072.038.153.08.244.124l.04.019c.305.148.642.296 1.002.435.827.318 1.645.535 2.406.605.344.032.671.033.977 0l.061-.007.035.286a5.15 5.15 0 01-1.1.008c-.79-.073-1.633-.297-2.483-.623a13.197 13.197 0 01-1.025-.445l-.118-.058a9.954 9.954 0 01-.141-.072l-.082-.043-.056-.03z"/><path fill="#000" d="M173.623 156.011c-.292 0-.656-.057-1.111-.202l.088-.275c.847.27 1.473.249 1.762-.062.246-.264.245-.747-.004-1.36-.169-.417-.127-1.206.124-2.346.184-.835.417-1.564.42-1.571l.275.088c-.253.787-.847 2.992-.551 3.72.376.927.18 1.417-.052 1.665-.165.177-.452.343-.95.343M171.658 152.118a.216.216 0 01-.146-.057 1.35 1.35 0 00-.877-.3c-.534.02-.889.28-.892.283a.218.218 0 01-.303-.043.215.215 0 01.04-.301 2.133 2.133 0 011.14-.371 1.78 1.78 0 011.185.413.216.216 0 01-.147.376M167.974 151.04s.827-.985 1.573-1.4c.46-.257 3.304-.807 3.408-.226.1.566-.192.586-1.325.77-1.134.184-1.665.23-2.26.508-.597.28-1.27.66-1.396.348M178.942 151.734s.104-.598-.04-.988-1.93-2.013-2.453-1.872c-.832.225-.532.622.521 1.328.847.568 1.185.787 1.505 1.187.436.547.404.433.467.345M177.738 152.776a.216.216 0 01-.146-.057 1.347 1.347 0 00-.877-.3c-.532.02-.887.28-.89.283a.217.217 0 01-.305-.04.216.216 0 01.04-.304 2.132 2.132 0 011.14-.37 1.781 1.781 0 011.185.413.216.216 0 01-.147.375"/></g><g transform="translate(150.794 138.634)"><mask id="d" fill="#fff"><use xlink:href="#c"/></mask><path fill="#8B4E26" fill-rule="nonzero" d="M23.79 3.53s-4.042 5.97-7.685 8.506c-5.9 4.108 1.425 7.263-.658 17.99 0 0-2.777 5.449 0 7.439 0 0-4.252-2.769-6.943-1.471-2.69 1.298-3.297-1.903-5.553-1.384C.694 35.129 0 33.572 0 33.572s3.298-3.028 3.298-6.488c0-3.46-.868-5.45 1.215-8.045 2.082-2.595.26-4.844 3.384-7.612C11.021 8.66 12.93-5.18 24.646 2.085c0 0 6.768 1.1 5.553 9.058-1.215 7.958 1.736 11.01 1.389 16.2-.347 5.19 3.471 7.44 3.471 7.44s-1.475.519-2.95 1.903c-1.476 1.384-4.253-.952-5.034.519-.78 1.47-3.21.433-3.21.433s1.562-5.104 1.04-8.305c-.52-3.2-1.735-4.468-1.046-6.369 0 0 2.535-1.385 3.789-5.907S28.43 4.675 23.79 3.53" mask="url(#d)"/></g><g fill-rule="nonzero"><g fill="#000"><path d="M170.256 148.54a2.757 2.757 0 00-2.761 2.752 2.757 2.757 0 002.76 2.753 2.757 2.757 0 002.762-2.753 2.757 2.757 0 00-2.761-2.752zm0 .649c1.165 0 2.11.942 2.11 2.103a2.107 2.107 0 01-2.11 2.104 2.107 2.107 0 01-2.11-2.104c0-1.161.944-2.103 2.11-2.103zM177.045 149.197a2.757 2.757 0 00-2.761 2.752 2.757 2.757 0 002.76 2.752 2.757 2.757 0 002.761-2.752 2.757 2.757 0 00-2.76-2.752zm0 .648c1.165 0 2.11.942 2.11 2.104a2.107 2.107 0 01-2.11 2.103 2.107 2.107 0 01-2.11-2.103c0-1.162.944-2.104 2.11-2.104z"/><path d="M163.831 149.32a.326.326 0 01.408-.186l.015.006 3.614 1.441a.324.324 0 01-.226.608l-.015-.006-3.614-1.441a.324.324 0 01-.182-.421zM172.396 151.428a.325.325 0 01.344-.287l.015.001 1.896.21a.324.324 0 01-.057.646l-.015-.001-1.896-.21a.324.324 0 01-.287-.359z"/></g><path fill="#FFF" d="M164.203 153.55c0 .417-.34.756-.759.756a.758.758 0 11.76-.757"/></g><g><path fill="#56ACF6" fill-rule="nonzero" d="M320.686 312.95l5.104 4.826 7.782-.631-.624-2.047-9.532-3.122z"/><path fill="#C26E5E" fill-rule="nonzero" d="M317.598 284.226c-.05.693 1.889 14.596 1.889 14.596l7.375.676 1.812-16.046-11.076.774z"/><path fill="#E4F9FF" fill-rule="nonzero" d="M318.442 306.455c.017-.237.817-8.017.817-8.017s-.214-.348-.149-1.246.648-1.711 4.467-1.107c3.819.603 4.022 1.093 3.994 1.47-.027.379-.519 1.247-.563 1.86-.044.615-.142 6.593-.142 6.593l-8.424.447z"/><path fill="#F4F0F1" fill-rule="nonzero" d="M318.352 306.148l-.699 6.221 5.05-.954 4.767 1.944 7.245 2.63 6.052-.627-.255-1.55s-5.435-2.832-6.734-3.617c-1.298-.785-1.818-2.154-1.818-2.154l-2.041-2.939s-2.18-3.136-3.92-3.405c-1.741-.27-3.23.033-2.899.729.331.696 1.152 1.923 1.152 1.923l-3.181-.635-1.802 2.21-.478.521.192.367"/><path fill="#F9C818" fill-rule="nonzero" d="M318.84 307.055s-.066.557 1.712 1.117c1.778.56 3.688 1.436 3.961.486.274-.95-.17-1.9-.17-1.9l1.63 1.187s.752 1.304-.108 2.57c-.86 1.265-3.015 1.316-3.015 1.316l-.914-.83s-2.855-1.606-3.466-2.722c-.612-1.115.37-1.224.37-1.224"/><g transform="rotate(-4 4518.874 -4336.566)"><mask id="f" fill="#fff"><use xlink:href="#e"/></mask><path fill="#15023F" fill-rule="nonzero" d="M4.693.456s-2.428 4.769-2.24 4.711c.187-.057 1.528-2.38 1.512-1.456-.016.923-.705 2.058-.652 3.09 0 0 .778 2.535 1.347 2.616.57.08 3.347-.438 3.347-.438s1.356-1.522 3.816.34 5.667 3.808 5.667 3.808-.428.31-.466.624c-.038.313.134.756.134.756l-9.983-2.15-5.172-4.04-.677.024s-.65.339-.784 1.446-.103 1.399-.295 1.731c-.192.333-.67.984.617 1.405 1.287.422 10.958 3.446 15.266 4.104 4.307.658 8.84-.257 10.126-1.344 1.285-1.088 1.537-2.01 1.331-2.927-.206-.915-.662-2.034-1.92-1.915-1.257.119-1.98.275-3.974-.515-1.993-.79-2.803-.77-2.764-.306.04.466 1.51 1.01 1.51 1.01s1.983.587 1.955.784c-.028.197-.11.367-1.928.1-1.817-.267-3.979-.817-6.73-2.758-2.75-1.942-3.554-2.683-5.456-2.604-1.901.08-3.653.825-4.036-.537-.383-1.362 1.042-3.032 1.064-3.483.021-.451-.583-.707-.583-.707L4.73.005" mask="url(#f)"/></g><g transform="rotate(-4 4518.874 -4336.566)"><mask id="h" fill="#fff"><use xlink:href="#g"/></mask><path fill="#451989" fill-rule="nonzero" d="M5.031-.654s-.075.086-.302.658c-.226.573-.417 2.372.218 2.357.635-.015 1.216-1.22 1.826-1.883.609-.663 1.329-.81 1.91-.44.58.372 2.92.39 2.92.39s-.55-1.1-2.619-1.263c0 0-1.43-.585-2.377.68-.948 1.265-1.56 2.545-1.545 1.426.013-.963.358-1.53.317-1.872-.04-.343-.348-.053-.348-.053" mask="url(#h)"/></g><g transform="rotate(-4 4518.874 -4336.566)"><mask id="j" fill="#fff"><use xlink:href="#i"/></mask><path fill="#E263AB" fill-rule="nonzero" d="M20.423 7.242s-1.115.086-4.3-.438c-3.185-.525-2.372-1.924-3.653-2.398-1.28-.474-1.417-.543-2.046-1.804-.628-1.261-2.509-.282-3.353-.548-.845-.267 1.893-2.442 1.893-2.442s1.417-.276 2.64.817c.343.308 1.006 1.37 1.212 1.622.205.253 1.519.834 2.613 2.414 1.094 1.582 2.81 1.275 3.14 1.39.328.116-2.28-4.085-2.28-4.085l.033-.398s1.618 2.77 2.419 4.01c.8 1.239 1.507 1.583 1.634 1.661.126.079.048.199.048.199" mask="url(#j)"/></g><g transform="rotate(-4 4518.874 -4336.566)"><mask id="l" fill="#fff"><use xlink:href="#k"/></mask><path fill="#FFF" fill-rule="nonzero" d="M3.466 2.815S1.072 7.356 1.112 8.439c.04 1.083 2.403.552 3.233 2.683.83 2.13 2.224 3.135 8.318 4.636 6.094 1.501 11.46-.44 11.512-.797.05-.357.059-1.054.059-1.054s-8.986.821-12.495-1.923c-3.51-2.743-3.582-3.512-4.99-3.257-1.408.256-2.19-.249-3.155-1.6 0 0-.06-.646.447-2.274.507-1.629.33-4.015-.575-2.038" mask="url(#l)"/></g><g transform="rotate(-4 4518.874 -4336.566)"><mask id="n" fill="#fff"><use xlink:href="#m"/></mask><path fill="#451989" fill-rule="nonzero" d="M9.056-.625s-.696-.87.613-1.665c1.31-.795 3.49.016 4.11.77 0 0-1.235-.713-2.836-.66-1.602.054-1.26.534-.608 1.713L8.91-.751" mask="url(#n)"/></g><g transform="rotate(-4 4518.874 -4336.566)"><mask id="p" fill="#fff"><use xlink:href="#o"/></mask><path fill="#1F003C" fill-rule="nonzero" d="M11.118.437c.152.283-.022.67-.387.865-.366.194-.786.123-.937-.16-.152-.282.021-.67.387-.864.366-.195.785-.124.937.159" mask="url(#p)"/></g><g transform="rotate(-4 4518.874 -4336.566)"><mask id="r" fill="#fff"><use xlink:href="#q"/></mask><path fill="#E8D9F3" fill-rule="nonzero" d="M10.024.865s.123-.574 1.271-.878c1.148-.305 3.309-.777 4.37.173 1.063.95.935 1.336.935 1.336s-.786-.547-1.406-.801c-.62-.254-1.475-.396-2.344-.29-.87.104-1.744.323-2.029.417-.284.095-.58.634-.797.043" mask="url(#r)"/></g><g transform="rotate(-4 4518.874 -4336.566)"><mask id="t" fill="#fff"><use xlink:href="#s"/></mask><path fill="#1F003C" fill-rule="nonzero" d="M12.534 1.79c.151.282-.022.67-.388.864-.366.195-.785.123-.937-.16-.151-.282.022-.67.388-.864.366-.195.785-.123.937.16" mask="url(#t)"/></g><g transform="rotate(-4 4518.874 -4336.566)"><mask id="v" fill="#fff"><use xlink:href="#u"/></mask><path fill="#E8D9F3" fill-rule="nonzero" d="M11.44 2.217s.121-.574 1.227-.884c1.105-.31 3.186-.794 4.203.15 1.016.942.89 1.329.89 1.329s-.753-.543-1.347-.793c-.595-.25-1.417-.387-2.253-.278-.837.11-1.68.333-1.953.43-.274.095-.562.636-.768.046" mask="url(#v)"/></g><g transform="rotate(-4 4518.874 -4336.566)"><mask id="x" fill="#fff"><use xlink:href="#w"/></mask><path fill="#1F003C" fill-rule="nonzero" d="M14.115 3.04c.151.283-.022.67-.388.865-.366.194-.785.123-.937-.16-.152-.283.022-.67.388-.864.365-.195.785-.124.937.159" mask="url(#x)"/></g><g transform="rotate(-4 4518.874 -4336.566)"><mask id="z" fill="#fff"><use xlink:href="#y"/></mask><path fill="#E8D9F3" fill-rule="nonzero" d="M13.017 3.492s.105-.517.99-.81c.883-.295 3.088-.612 3.883.218.795.83.234 1.325.234 1.325s-.678-.768-1.147-.983c-.47-.216-1.121-.327-1.789-.216-.667.11-1.34.322-1.56.412-.22.09-.456.579-.611.054" mask="url(#z)"/></g><g fill-rule="nonzero"><path fill="#1A1A1A" d="M262.705 241.796s-.446 13.508 1.97 12.708c0 0 13.159 1.3 16.373 1.8 1.617.252 4.71 2.18 14.389 3.789 9.679 1.608 18.908 3.266 18.908 3.912 0 1.301 2.108 10.79 2.61 22.397 0 0 3.014 3.602 12.054.4 0 0 .655-22.693-3.865-31.498-8.631-11.406-35.99-13.508-35.99-13.508h-26.449z"/><path fill="#C26E5E" d="M288.745 282.811c0 .695.863 18.465.863 18.465l7.045.645 3.894-20.082-11.802.972z"/><path fill="#56ACF6" d="M291.012 305.176l4.754 5.17 7.808-.087-.48-2.086-9.29-3.78zM291.032 313.334l4.754 5.17 7.807-.087-.48-2.086-9.29-3.78z"/><path fill="#E4F9FF" d="M288.947 307.786c0-.236.238-8.054.238-8.054s-.238-.331-.238-1.231c0-.9.524-1.753 4.376-1.422 3.853.332 4.09.806 4.09 1.185s-.428 1.279-.428 1.895c0 .616.333 6.585.333 6.585l-8.37 1.042z"/><path fill="#F4F0F1" d="M288.836 307.487l-.25 6.255 4.969-1.31 4.895 1.6 7.416 2.111 5.991-1.055-.365-1.528s-5.626-2.438-6.978-3.13c-1.352-.691-1.969-2.02-1.969-2.02l-2.247-2.786s-2.4-2.973-4.156-3.119c-1.755-.146-3.219.263-2.838.933.38.67 1.287 1.836 1.287 1.836l-3.219-.408-1.638 2.332-.44.554.219.353"/><path fill="#F9C818" d="M289.387 308.357s-.025.56 1.789.993c1.814.433 3.782 1.17 3.986.203.204-.967-.307-1.883-.307-1.883l1.712 1.069s.843 1.247.077 2.57c-.767 1.324-2.913 1.528-2.913 1.528l-.97-.764s-2.965-1.4-3.655-2.469.281-1.247.281-1.247"/><path fill="#15023F" d="M288.61 306.136s-1.73 5.062-1.551 4.979c.177-.083 1.176-2.57 1.29-1.654.116.916-.407 2.136-.207 3.15 0 0 1.128 2.401 1.703 2.401.575 0 3.251-.903 3.251-.903s1.128-1.696 3.827-.198c2.698 1.498 6.149 2.974 6.149 2.974s-.381.368-.374.683c.007.316.24.73.24.73l-10.188-.729-5.691-3.273-.667.118s-.595.427-.572 1.542c.024 1.115.096 1.4-.047 1.756-.143.356-.524 1.067.81 1.304 1.333.238 11.335 1.874 15.693 1.922 4.358.047 8.716-1.495 9.835-2.752 1.119-1.257 1.238-2.206.905-3.084-.334-.877-.943-1.92-2.172-1.627-1.228.294-1.922.55-4.007.048-2.085-.503-2.885-.37-2.78.085.105.455 1.637.787 1.637.787s2.047.304 2.047.503-.057.38-1.894.37c-1.838-.01-4.056-.251-7.053-1.788-2.998-1.536-3.899-2.157-5.77-1.812-1.871.345-3.5 1.33-4.072.035-.572-1.295.603-3.149.56-3.598-.042-.45-.676-.618-.676-.618l-.253-1.803"/><path fill="#451989" d="M288.789 304.99s-.063.095-.206.694c-.144.598-.079 2.407.548 2.303.627-.104 1.032-1.38 1.541-2.121.51-.742 1.202-.989 1.829-.703.627.287 2.947-.023 2.947-.023s-.7-1.012-2.772-.884c0 0-1.498-.379-2.257 1.007-.76 1.385-1.185 2.738-1.328 1.629-.123-.956.138-1.565.05-1.899-.09-.334-.352-.003-.352-.003"/><path fill="#E263AB" d="M305.143 310.648s-1.091.241-4.319.17c-3.227-.074-2.62-1.572-3.955-1.863-1.335-.29-1.48-.338-2.281-1.498-.8-1.16-2.524.072-3.397-.072-.874-.146 1.528-2.684 1.528-2.684s1.365-.471 2.729.439c.384.256 1.19 1.215 1.43 1.436.239.22 1.622.612 2.928 2.024 1.307 1.412 2.963.867 3.305.935.341.069-2.835-3.725-2.835-3.725l-.023-.398s1.994 2.515 2.961 3.63c.969 1.115 1.717 1.356 1.853 1.416.136.06.076.19.076.19"/><path fill="#FFF" d="M287.73 308.644s-1.729 4.832-1.536 5.898c.193 1.066 2.457.21 3.58 2.202 1.123 1.993 2.644 2.793 8.89 3.424 6.246.631 11.285-2.044 11.285-2.404 0-.361-.09-1.052-.09-1.052s-8.781 2.073-12.643-.15c-3.862-2.225-4.043-2.976-5.4-2.525-1.359.45-2.204.06-3.35-1.142 0 0-.151-.631.12-2.315.272-1.683-.24-4.02-.857-1.936"/><path fill="#451989" d="M292.777 304.454s-.812-.763.372-1.734c1.183-.971 3.458-.474 4.177.185 0 0-1.323-.532-2.9-.255-1.58.278-1.173.705-.36 1.78l-1.451-.08"/><path fill="#1F003C" d="M294.969 305.216c.19.259.073.666-.262.91-.334.244-.76.233-.95-.026-.19-.259-.073-.666.262-.91.334-.244.76-.233.95.026"/><path fill="#E8D9F3" d="M293.946 305.793s.041-.585 1.134-1.048c1.093-.462 3.166-1.232 4.352-.441 1.186.79 1.114 1.191 1.114 1.191s-.856-.431-1.506-.596c-.65-.164-1.516-.185-2.361.042-.846.225-1.681.564-1.95.698-.267.134-.484.709-.783.154"/><path fill="#1F003C" d="M296.562 306.356c.19.259.073.667-.262.91-.334.245-.76.233-.95-.026-.19-.258-.073-.666.261-.91.335-.244.76-.232.95.026"/><path fill="#E8D9F3" d="M295.539 306.933s.04-.585 1.09-1.047c1.05-.463 3.042-1.233 4.182-.442 1.14.79 1.07 1.191 1.07 1.191s-.822-.431-1.447-.595c-.624-.165-1.457-.185-2.27.04-.812.227-1.615.566-1.872.7-.258.133-.466.708-.753.153"/><path fill="#1F003C" d="M298.304 307.373c.19.258.073.666-.262.91-.334.244-.76.232-.95-.026-.19-.259-.073-.667.261-.91.335-.245.76-.233.95.026"/><path fill="#E8D9F3" d="M297.28 307.974s.032-.526.866-.941c.833-.416 2.971-1.039 3.876-.328.904.71.418 1.279.418 1.279s-.779-.665-1.274-.813c-.496-.148-1.156-.166-1.801.037a8.796 8.796 0 00-1.487.627c-.204.12-.37.637-.597.139"/><path fill="#1A1A1A" d="M269.64 260.092c9.68 1.609 18.908 3.267 18.908 3.913 0 1.301-.784 10.79-.282 22.397 0 0 3.014 3.602 12.054.4 0 0 3.547-22.693-.973-31.498-8.63-11.407-35.99-13.508-35.99-13.508-2.264 11.125-.17 17.224 6.283 18.296z"/></g><path stroke="#000" stroke-width=".5" d="M291.612 248.566c6.145 2.287 9.278 6.512 9.4 12.675"/><g fill-rule="nonzero"><path fill="#C26E5E" d="M275.63 189.006s-.266 5.845-3.689 7.908c-3.105 1.872 3.474 12.734 10.551 12.086 3.874-.355 4.782-10.908 4.782-10.908s-3.128-.602-1.972-5.354l-9.671-3.732z"/><path fill="#C26E5E" d="M281.298 194.949c-4.588-.553-7.9-3.558-8.363-8.543-1.334.212-1.649-3.25-1.277-4.362.372-1.114 1.585-.463 1.585-.463.067-.176.125-.36.172-.552 2.004-8.19 7.618-7.865 7.618-7.865 10.315.535 7.898 11.026 7.309 13.809-.59 2.783-2.609 8.51-7.044 7.976zM248.895 217.977c-4.003 7.05-4.876 12.32-2.617 15.81 3.388 5.236 8.194-1.682 10.17-9.41 1.317-5.15 3.337-9.264 6.06-12.34l-13.613 5.94z"/><path fill="#FC7750" d="M262.754 199.213c5.994-1.846 7.84-1.95 7.84-1.95l6.328 1.358s3.467 4.54 3.764 8.585c0 0 .1-5.329 2.378-8.98 0 0 10.029-.092 13.81 3.84 5.972 6.212 5.86 17.11 5.86 17.11l-9.855 1.01 3.995-5.54s.252 22.571-.342 28.394c-7.522 8.265-34.563 1.868-34.563 1.868s.587-18.678.686-23.787c.1-5.108-1.798-4.418-4.412 1.914-2.138 5.178-8.934-5.557-8.934-5.557s4.171-15.409 13.445-18.265z"/><path fill="#FCEBEC" d="M293.35 227.344s4.866-1.738 9.814-.712c0 0-.064-1.609-.014-3.733.042-1.745 1.001-4.445-2.46-4.154-4.028.338-5.755.374-7.506 1.163 0 0-.417 5.774.167 7.436"/><path fill="#F94B18" d="M247.071 220.868l2.122-6.65s7.853-1.635 10.964 5.127l-2.331 6.02s-4.361-6.405-10.755-4.497M270.696 196.287s-4.006 1.351-3.76 1.72c.247.368 7.359 5.08 7.892 4.87.533-.208 2.532-3.982 2.247-4.362-.286-.379-6.037-2.37-6.38-2.228M289.487 197.93s3.448 2.438 3.106 2.72c-.342.283-8.513 2.763-8.963 2.41-.45-.352-1.278-4.54-.895-4.82.383-.282 6.465-.544 6.752-.31"/><path fill="#C26E5E" d="M251.836 224.909c1.974 2.879.803 2.931 1.663 4.515.86 1.584 1.668 4.889 2.655 4.806.987-.083 1.039-.63.654-1.65-.384-1.022-1.51-4.294-1.088-4.45.422-.155 1.785 6.312 3.348 6.208 1.564-.104.252-3.418-.456-4.901-.707-1.483-.947-2.581-.5-2.486.447.096 2.17 7.333 3.441 7.115 1.272-.217.626-2.76-.08-4.261a265.82 265.82 0 01-1.756-3.867s1.787 2.307 2.597 5.061c.81 2.755 1.31 2.895 1.765 2.63.455-.266-.149-3.509-.149-3.509s1.525-2.486-.393-4.701c-1.918-2.215-2.99-4.55-5.635-5.803-2.645-1.253-4.288-.21-4.288-.21s-3.752 2.623-1.778 5.503z"/><path fill="#F94B18" d="M290.382 211.368h-6.566a.483.483 0 01-.484-.482v-.567c0-.266.217-.482.484-.482h6.566c.267 0 .484.216.484.482v.567a.483.483 0 01-.484.482"/><g><path fill="#024488" d="M284.548 235.633l-13.21-3.647s-.822-.864 1.596-1.091c2.418-.227 27.684-.9 27.684-.9l-16.07 5.638z"/><path fill="#025B9C" d="M322 235.594h-37.052a1.24 1.24 0 01-1.243-1.238l3.364-24.306a1.24 1.24 0 011.243-1.237h37.052a1.24 1.24 0 011.243 1.237l-3.363 24.306a1.24 1.24 0 01-1.243 1.238"/></g><g><path fill="#C26E5E" d="M313.212 235.61s-.208.422-.492.867c-.285.445-.447.185-.958 1.134-.511.949-1.967 2.832-5.55 1.529-3.582-1.303-3.577-2.127-3.382-3.209.194-1.08.513-1.302.125-3.095-.387-1.792.765-4.007 1.2-4.11l.435-.102s.082-1.788.787-1.9c.705-.112.784.372.784.372s.214-.422.859-.358c.645.065.919 1.268 1.18 2.671.26 1.404.683 5.104.893 5.27.21.167.399.028.24-.821-.159-.85-1.194-4.155-.276-4.453.917-.298 1.415.636 2.002 2.56.586 1.925.807 2.244.78 2.762l.178.882 1.195.002z"/><path fill="#995B5D" d="M306.156 227.067s.04-.126-.002.726c-.015.31.001.735.076 1.316.28 2.181.621 5.633.802 6.671.181 1.038-.295.292-.573-2.124-.278-2.416-.54-5.314-.538-5.449.001-.228.005-.914.235-1.14M304.642 232.196c.066.947.212 2.516.225 2.682.024.297.088.872.088.872s-.2.058-.393-1.704c-.049-.437-.175-1.235-.194-1.761-.018-.484-.128-2.216-.02-2.486.107-.27.272-.362.272-.362s-.04 1.867.022 2.759z"/></g></g><g><g fill-rule="nonzero"><path fill="#000" d="M284.378 182.922l.275.088-.027.086-.071.24a19.84 19.84 0 00-.219.808c-.077.312-.143.615-.194.901l-.015.085c-.126.728-.144 1.283-.032 1.582l.007.017c.642 1.582-.23 2.384-2.06 1.822l-.055-.017.088-.275c1.648.526 2.31-.066 1.759-1.422-.151-.373-.128-1.007.023-1.843.053-.292.12-.601.199-.92.062-.253.129-.5.196-.733l.025-.086.043-.146.036-.116.022-.071z"/><path fill="#C86A5D" d="M277.238 193.942l.141-.251.052.028.047.025c.072.038.154.08.245.123l.039.02c.305.148.643.296 1.003.434.827.318 1.645.535 2.406.605.345.032.672.033.978 0l.06-.007.036.286a5.155 5.155 0 01-1.1.008c-.791-.073-1.634-.296-2.484-.623a13.205 13.205 0 01-1.026-.444l-.118-.058a9.958 9.958 0 01-.141-.072l-.082-.043-.056-.03z"/></g><path fill="#000" fill-rule="nonzero" d="M282.505 190.806a5.056 5.056 0 01-2.441-.652.216.216 0 01-.07-.297.217.217 0 01.298-.07c.02.012 1.229.735 2.685.56a.216.216 0 11.052.429 4.35 4.35 0 01-.524.03M283.068 188.73c-.292 0-.657-.057-1.112-.202l.088-.274c.848.27 1.474.248 1.763-.062.246-.264.245-.747-.004-1.36-.169-.416-.127-1.205.124-2.345.184-.834.418-1.563.42-1.57l.275.087c-.253.788-.847 2.991-.55 3.72.375.926.178 1.416-.053 1.664-.165.177-.452.342-.95.342"/><g transform="translate(277.37 181.37)"><mask id="B" fill="#fff"><use xlink:href="#A"/></mask><path fill="#000" fill-rule="nonzero" d="M4.493 1.4a.399.399 0 01-.131-.023C3.94 1.231 2.72.841 2.156.8 1.624.76.813 1.022.545 1.126a.396.396 0 11-.29-.738C.301.37 1.392-.052 2.215.01 3 .067 4.558.606 4.624.63a.396.396 0 01-.131.77" mask="url(#B)"/></g><path fill="#000" fill-rule="nonzero" d="M288.552 184.12a.387.387 0 01-.229-.074c-.221-.161-.904-.598-1.4-.68-.53-.089-1.748.01-2.173.056a.387.387 0 11-.084-.769c.067-.007 1.642-.174 2.385-.05.781.13 1.693.791 1.731.82a.386.386 0 01-.23.698"/><g fill="#000" fill-rule="nonzero"><path d="M280.877 184.517a.424.424 0 11-.848-.002.424.424 0 01.848.002M286.317 184.998a.424.424 0 11-.848-.002.424.424 0 01.848.002"/></g></g><g transform="translate(271.368 170.065)"><mask id="D" fill="#fff"><use xlink:href="#C"/></mask><path fill="#221108" fill-rule="nonzero" d="M1.96 12.3s-.444 2.148.298 1.49c.742-.656.73-3.336 2.28-5.212 2.356-2.85 11.723-1.535 12.508.726.645 1.857.433 3.755.304 5.568 0 0 .833-.096.826-5.178-.005-4.124.789-6.337-3.268-7.74C10.85.554 8.84-1.055 5.198.925 1.553 2.904-.819 5.174.262 7.584c1.177 2.626-.548 3.98-.02 4.662.428.556 1.717.053 1.717.053" mask="url(#D)"/></g><g fill="#000" fill-rule="nonzero"><path d="M282.887 192.228l-1.23-.144s-2.024 1.729-2.891.289c-1.05-1.744.94-2.305 2.169-2.521 1.229-.216 1.88-.504 1.88-.504.433.432.213.303.96.92.796.658 1.28 2.656.43 2.987-.85.33-1.318-1.027-1.318-1.027zm5.06-3.889c-1.228 4.322-2.096 1.729-3.542.72-.797-.555-4.627-1.44-5.712.217-1.084 1.656-1.301 1.584-2.892.144-1.59-1.44-1.98-2.796-2.024-4.537-.084-3.295-.518-3.152-.575-3.295-.02.298-.578 5.943-.437 7.76.144 1.872 2.964 7.706 8.314 7.418 5.35-.288 6.652-5.114 6.94-8.427"/></g></g><g fill-rule="nonzero"><g transform="translate(218 61)"><rect width="42.838" height="76.738" fill="#56ACF6" rx="5.423"/><rect width="39.279" height="64.524" x="1.712" y="1.729" fill="#A1DAF6" rx="2.789"/><ellipse cx="21.419" cy="71.482" fill="#A1DAF6" rx="2.689" ry="2.743"/><g fill="#56ACF6" transform="matrix(-1 0 0 1 38.412 3.837)"><path d="M.176.978L3.413.513l-.309 2.08-2.928-.16z"/><path d="M3.585.453L3.27.405l-.327 2.221.232.564H.015v.323h3.64l-.384-.928z"/><path d="M3.92 0c-.379 0-.618.161-.665.466a.16.16 0 00.137.18.162.162 0 00.183-.128l.001-.005c.021-.134.117-.195.344-.195a.16.16 0 00.162-.16A.16.16 0 003.92 0z"/><circle cx=".376" cy="3.634" r="1"/><circle cx="3.106" cy="3.634" r="1"/></g><rect width="30.824" height="19.049" x="6.02" y="13.564" fill="#FFF" rx="2.944"/><g fill="#56ACF6"><path d="M32.425 27.234c.048-.655-.266-1.25-.943-1.783-2.227-.889-4.086-.643-7.282-1.498-2.131-.571-3.625-1.153-4.482-1.748l-1.55-2.535c-.933-.98-1.4-.625-1.4 1.065 0 2.535-2.462 1.921-3.38 1.921-.916 0-.916-.612-1.336-.676-.49-.075-.909.455-1.137.676-.284.273-.435 1.613-.453 4.018h6.829c.735.33 1.694.516 2.879.56 3.972.147 8.057.147 12.255 0z"/><path d="M17.45 27.052v.843c.813.3 1.626.45 2.438.45h12.204l.338-.731c-7.591.006-11.77-.013-12.538-.057-.767-.043-1.581-.212-2.442-.505zm-6.988-.113v1.35h6.6v-1.35h-6.6z"/></g><path fill="#56ACF6" d="M31.622 6.452l.364-.205.774 1.245-.507.284z"/><path fill="#56ACF6" d="M31.252 3.904c-.776 0-1.405.636-1.405 1.419s.63 1.419 1.405 1.419c.776 0 1.405-.636 1.405-1.419s-.629-1.419-1.405-1.419zm0 .406c.554 0 1.004.453 1.004 1.013 0 .56-.45 1.013-1.004 1.013a1.008 1.008 0 01-1.003-1.013c0-.56.45-1.013 1.003-1.013zM4.04 4.215H8v1H4.04zM4.04 5.323H8v1H4.04zM4.04 6.485H8v1H4.04z"/><rect width="15.466" height="5.188" x="21.366" y="56.972" fill="#56ACF6" rx="2.594"/><g fill="#56ACF6"><path d="M8 38.53l-1.163.619.222-1.309-.942-.927 1.301-.19L8 35.531l.582 1.19 1.301.191-.941.927.222 1.309zM12.87 38.53l-1.164.619.223-1.309-.942-.927 1.301-.19.582-1.191.582 1.19 1.301.191-.941.927.222 1.309zM17.74 38.53l-1.164.619.222-1.309-.941-.927 1.301-.19.582-1.191.582 1.19 1.301.191-.942.927.223 1.309zM22.61 38.53l-1.164.619.222-1.309-.941-.927 1.3-.19.583-1.191.582 1.19 1.3.191-.94.927.222 1.309zM27.48 38.53l-1.164.619.222-1.309-.942-.927 1.302-.19.581-1.191.582 1.19 1.302.191-.942.927.222 1.309z"/></g><g transform="translate(6.02 42.449)"><rect width="30.824" height="11.592" fill="#FFF" rx="5.796"/><rect width="24.402" height="1.162" x="3.131" y="2.945" fill="#56ACF6" rx=".581"/><rect width="8.964" height="1.162" x="3.131" y="5.35" fill="#56ACF6" rx=".581"/><rect width="10.73" height="1.162" x="3.131" y="7.782" fill="#56ACF6" rx=".581"/></g></g></g><g fill-rule="nonzero" transform="translate(102 82)"><path fill="#A1DAF6" d="M1.418 12.484l46.785-6.74-4.47 30.153-42.315-2.345z"/><path fill="#56ACF6" d="M47.015 5.744l2.07.312-4.42 30.025 4.955 12.022H0v-2.119h46.48l-3.97-9.632z"/><path fill="#56ACF6" d="M54.95 0C55.53 0 56 .483 56 1.079s-.47 1.079-1.05 1.079c-3.782 0-5.679 1.338-6.077 4.1-.085.59-.619.997-1.192.91-.574-.088-.97-.636-.885-1.226C47.363 2.01 50.21 0 54.95 0z"/><ellipse cx="3.899" cy="52.769" fill="#56ACF6" rx="3.19" ry="3.231"/><ellipse cx="43.595" cy="52.769" fill="#56ACF6" rx="3.19" ry="3.231"/></g><g fill-rule="nonzero" transform="translate(49 264)"><rect width="65.853" height="51.278" y=".059" fill="#EECCDC" rx="9"/><path fill="#DDB0C8" d="M0 11.615h65.853v29.611H0z"/><rect width="35.074" height="13.722" x="32.926" y="18.837" fill="#EECCDC" rx="6.861"/><ellipse cx="39.368" cy="25.337" fill="#DDB0C8" rx="4.295" ry="4.333"/></g><g transform="translate(320 96)"><rect width="67.51" height="41" fill="#A1DAF6" rx="7"/><rect width="67.51" height="19.961" y="21.039" fill="#0075FF" rx="7"/><rect width="15.823" height="11.329" x="4.219" y="15.105" fill="#56ACF6" rx="4"/><g fill="#A1DAF6" transform="translate(4.747 32.908)"><rect width="9.603" height="2.697" rx="1.349"/><rect width="9.603" height="2.697" x="16.005" rx="1.349"/><rect width="9.603" height="2.697" x="32.409" rx="1.349"/><rect width="9.603" height="2.697" x="48.414" rx="1.349"/></g></g></g></svg>