<svg version="1.2" xmlns="http://www.w3.org/2000/svg" viewBox="0 0 105 57" width="105" height="57"><style>.a{fill:#002a56}.b{fill:#005b9d}</style><path class="a" d="m43.3 56.5h-2.7l-4.1-12.2-4 12.2h-2.8l-5.1-16.9h3.4l3.4 12.1 3.7-12.1h3l3.9 12.1 3.4-12.1h2.8l-4.8 16.9z"/><path class="a" d="m48.9 53.9l1.5-2c0.9 1.3 2.2 2.1 3.6 2.1 1.5 0 2.8-1.1 2.8-2.4 0-1.2-1.2-2.3-3.2-2.3h-1.2v-2.8h1.1c1.4 0 2.6-0.9 2.6-2.3 0-1.5-0.7-2.1-2.1-2.1-1.5 0-2.4 0.6-3.2 1.8l-1.6-1.9c1-1.8 2.7-2.7 5-2.7 2.4 0 4.9 1.7 4.9 4.4 0 2.6-0.9 3.2-2.6 4 2.1 0.4 3.3 2.1 3.3 4.1 0 3.1-2.5 5-5.6 5-3.1 0-4.5-1.1-5.3-2.9z"/><path class="a" d="m76.4 54.9c-1.1 1.1-3.2 1.9-5.4 1.9-5.2 0-8.8-3.5-8.8-8.7 0-5.3 3.1-8.8 8.7-8.8 5.6 0 4 0.7 5.1 1.8l-1.3 2.2c-1-0.7-2.1-1.2-3.8-1.2-3.2 0-5.5 2.3-5.5 6 0 3.6 2.4 5.9 5.8 5.9 3.5 0 2.9-0.5 4-1.3z"/><path class="b" d="m71 23.5c-1-0.8-2.5-0.6-3.4 0.4-1 1.3-1.9 2.1-3 2.5-1.9 0.9-3.6 0.5-5.2-1.1-1.6-1.5-3.1-3.2-4.6-4.9q-1.1-1.2-2.2-2.4c-1.2-1.3-2.5-2.7-3.8-4l-0.1-0.2c-2.7-2.9-5.6-5.9-8.3-9-2.2-2.4-5.6-3.6-8.8-3.1-3.3 0.5-6 2.6-7.5 5.9-1.5 3.2-1 6.9 1.3 9.5 4 4.7 7.4 8.6 11.5 12.2 1.6 1.5 3.6 2.3 5.7 2.3 1.4 0 3.5-0.1 5.6-1.5 0.9-0.6 1.7-1.3 2.1-2.3 0.4-1 0-2.1-0.9-2.8-0.8-0.6-2-0.5-2.8 0.2q-0.2 0.1-0.4 0.2c-1.3 1.2-2.9 2.6-6.2 0.2-3.1-2.2-5.4-5-8.2-8.3-0.9-1.1-1.8-2.2-2.8-3.4-1-1.2-1.3-2.8-0.6-4.3 0.7-1.3 1.8-2.9 3.9-3.2 1.6-0.3 3.4 0.4 4.5 1.6 2.8 3.1 5.6 6.1 8.4 9.1 1.3 1.4 2.6 2.7 3.9 4.1 0.7 0.8 1.4 1.6 2.1 2.4 1.5 1.7 3.1 3.4 4.8 5.1 3 2.9 6.7 3.7 10.5 2.1 1.8-0.8 3.4-2 4.9-4 0.8-1 0.6-2.5-0.4-3.3z"/><path class="b" d="m74.8 10.1c1.6-0.7 2.8-2.1 2.9-3.8 0.3-2.9-2.1-5.7-5.7-6.1-2.2-0.3-4.2 0.4-5.6 1.5-0.8 0.7-1 1.8-0.4 2.7 0.8 0.8 1.6 1 3 0.2 0.5-0.3 1.2-0.5 2-0.4 1.6 0.1 2 1.4 1.9 2.1 0 0.1 0 2.2-2.1 2h-0.8c-0.9-0.1-1.8 0.8-1.9 1.7-0.1 1.1 0.6 2 1.6 2l1 0.1c2.7 0.2 2.5 2.5 2.4 2.9 0 1.1-1.8 2.9-4.8 0.8-1.1-0.7-8.5-10-8.5-10-3.6-4.5-9.6-5.4-14.3-1.9-0.5 0.4-0.9 0.9-1 1.6-0.1 0.6 0.1 1.2 0.5 1.8 0.4 0.5 0.9 0.8 1.5 0.9 0.7 0.1 1.3 0 1.9-0.4 3.2-2.4 6.1-1 7.5 1 0 0 8 10.2 10.1 11.3q2 1 4.1 1.2c4.4 0.3 7-2.1 7.8-5.4 0.4-2.1-1-4.8-3.1-5.8z"/></svg>